<svg xmlns="http://www.w3.org/2000/svg" xmlns:xlink="http://www.w3.org/1999/xlink" width="1600" zoomAndPan="magnify" viewBox="0 0 1200 449.999984" height="600" preserveAspectRatio="xMidYMid meet" version="1.0"><defs><g/><clipPath id="b4bd5a99b9"><path d="M 13.949219 13.773438 L 1185.449219 13.773438 L 1185.449219 436.023438 L 13.949219 436.023438 Z M 13.949219 13.773438 " clip-rule="nonzero"/></clipPath><clipPath id="a236a96c01"><path d="M 351.652344 308.148438 L 391.363281 308.148438 L 391.363281 347.859375 L 351.652344 347.859375 Z M 351.652344 308.148438 " clip-rule="nonzero"/></clipPath><clipPath id="0f422892bc"><path d="M 371.507812 308.148438 C 360.542969 308.148438 351.652344 317.039062 351.652344 328.003906 C 351.652344 338.972656 360.542969 347.859375 371.507812 347.859375 C 382.472656 347.859375 391.363281 338.972656 391.363281 328.003906 C 391.363281 317.039062 382.472656 308.148438 371.507812 308.148438 " clip-rule="nonzero"/></clipPath><clipPath id="2bfa5c7824"><path d="M 443.902344 98.816406 L 483.8125 98.816406 L 483.8125 138.730469 L 443.902344 138.730469 Z M 443.902344 98.816406 " clip-rule="nonzero"/></clipPath><clipPath id="b33238b433"><path d="M 463.855469 98.816406 C 452.835938 98.816406 443.902344 107.75 443.902344 118.773438 C 443.902344 129.792969 452.835938 138.730469 463.855469 138.730469 C 474.878906 138.730469 483.8125 129.792969 483.8125 118.773438 C 483.8125 107.75 474.878906 98.816406 463.855469 98.816406 " clip-rule="nonzero"/></clipPath><clipPath id="9cc7511541"><path d="M 0 117.753906 L 29.96875 117.753906 L 29.96875 157.351562 L 0 157.351562 Z M 0 117.753906 " clip-rule="nonzero"/></clipPath><clipPath id="7439636319"><path d="M -9.628906 137.550781 C -9.628906 148.488281 -0.765625 157.351562 10.171875 157.351562 C 21.105469 157.351562 29.96875 148.488281 29.96875 137.550781 C 29.96875 126.617188 21.105469 117.753906 10.171875 117.753906 C -0.765625 117.753906 -9.628906 126.617188 -9.628906 137.550781 " clip-rule="nonzero"/></clipPath><clipPath id="b7c08e5029"><path d="M 351.652344 0 L 391.363281 0 L 391.363281 39.710938 L 351.652344 39.710938 Z M 351.652344 0 " clip-rule="nonzero"/></clipPath><clipPath id="1fb44e7a85"><path d="M 371.507812 0 C 360.542969 0 351.652344 8.890625 351.652344 19.855469 C 351.652344 30.820312 360.542969 39.710938 371.507812 39.710938 C 382.472656 39.710938 391.363281 30.820312 391.363281 19.855469 C 391.363281 8.890625 382.472656 0 371.507812 0 " clip-rule="nonzero"/></clipPath><clipPath id="05004aaef2"><path d="M 391.363281 44.992188 L 431.074219 44.992188 L 431.074219 84.703125 L 391.363281 84.703125 Z M 391.363281 44.992188 " clip-rule="nonzero"/></clipPath><clipPath id="ca441bb811"><path d="M 391.363281 64.847656 C 391.363281 75.8125 400.25 84.703125 411.21875 84.703125 C 422.183594 84.703125 431.074219 75.8125 431.074219 64.847656 C 431.074219 53.882812 422.183594 44.992188 411.21875 44.992188 C 400.25 44.992188 391.363281 53.882812 391.363281 64.847656 " clip-rule="nonzero"/></clipPath><clipPath id="e9f4f9ca49"><path d="M 152.5625 420.214844 L 193.070312 420.214844 L 193.070312 450 L 152.5625 450 Z M 152.5625 420.214844 " clip-rule="nonzero"/></clipPath><clipPath id="ab4b326087"><path d="M 152.5625 440.46875 C 152.5625 451.652344 161.632812 460.71875 172.816406 460.71875 C 184.003906 460.71875 193.070312 451.652344 193.070312 440.46875 C 193.070312 429.28125 184.003906 420.214844 172.816406 420.214844 C 161.632812 420.214844 152.5625 429.28125 152.5625 440.46875 " clip-rule="nonzero"/></clipPath><clipPath id="e92274268f"><path d="M 1169.664062 98.808594 L 1200 98.808594 L 1200 138.519531 L 1169.664062 138.519531 Z M 1169.664062 98.808594 " clip-rule="nonzero"/></clipPath><clipPath id="88a4334954"><path d="M 1169.664062 118.664062 C 1169.664062 129.632812 1178.550781 138.519531 1189.519531 138.519531 C 1200.484375 138.519531 1209.375 129.632812 1209.375 118.664062 C 1209.375 107.699219 1200.484375 98.808594 1189.519531 98.808594 C 1178.550781 98.808594 1169.664062 107.699219 1169.664062 118.664062 " clip-rule="nonzero"/></clipPath><clipPath id="2a62d66495"><path d="M 676 58 L 1119 58 L 1119 162 L 676 162 Z M 676 58 " clip-rule="nonzero"/></clipPath><clipPath id="c1086be397"><path d="M 678.910156 58.910156 L 1118.972656 71.8125 L 1116.332031 161.773438 L 676.273438 148.871094 Z M 678.910156 58.910156 " clip-rule="nonzero"/></clipPath><clipPath id="df1c347698"><path d="M 671.5625 290.535156 L 1123.8125 290.535156 L 1123.8125 380.535156 L 671.5625 380.535156 Z M 671.5625 290.535156 " clip-rule="nonzero"/></clipPath><clipPath id="da570cf58a"><path d="M 680 153 L 1138 153 L 1138 297 L 680 297 Z M 680 153 " clip-rule="nonzero"/></clipPath><clipPath id="935e672ff5"><path d="M 680.546875 165.425781 L 1134.144531 153.710938 L 1137.535156 284.917969 L 683.933594 296.632812 Z M 680.546875 165.425781 " clip-rule="nonzero"/></clipPath></defs><rect x="-120" width="1440" fill="#ffffff" y="-44.999998" height="539.99998" fill-opacity="1"/><rect x="-120" width="1440" fill="#ffffff" y="-44.999998" height="539.99998" fill-opacity="1"/><rect x="-120" width="1440" fill="#ffffff" y="-44.999998" height="539.99998" fill-opacity="1"/><g clip-path="url(#b4bd5a99b9)"><path fill="#fff2cc" d="M 13.949219 436.023438 L 13.949219 13.773438 L 1185.449219 13.773438 L 1185.449219 436.023438 Z M 13.949219 436.023438 " fill-opacity="1" fill-rule="nonzero"/></g><g clip-path="url(#a236a96c01)"><g clip-path="url(#0f422892bc)"><path fill="#ff3131" d="M 351.652344 308.148438 L 391.363281 308.148438 L 391.363281 347.859375 L 351.652344 347.859375 Z M 351.652344 308.148438 " fill-opacity="1" fill-rule="nonzero"/></g></g><g clip-path="url(#2bfa5c7824)"><g clip-path="url(#b33238b433)"><path fill="#fa7d9d" d="M 443.902344 98.816406 L 483.8125 98.816406 L 483.8125 138.730469 L 443.902344 138.730469 Z M 443.902344 98.816406 " fill-opacity="1" fill-rule="nonzero"/></g></g><g clip-path="url(#9cc7511541)"><g clip-path="url(#7439636319)"><path fill="#004aad" d="M -9.628906 157.351562 L -9.628906 117.753906 L 29.96875 117.753906 L 29.96875 157.351562 Z M -9.628906 157.351562 " fill-opacity="1" fill-rule="nonzero"/></g></g><g clip-path="url(#b7c08e5029)"><g clip-path="url(#1fb44e7a85)"><path fill="#d9d9d9" d="M 351.652344 0 L 391.363281 0 L 391.363281 39.710938 L 351.652344 39.710938 Z M 351.652344 0 " fill-opacity="1" fill-rule="nonzero"/></g></g><g clip-path="url(#05004aaef2)"><g clip-path="url(#ca441bb811)"><path fill="#ffde59" d="M 391.363281 84.703125 L 391.363281 44.992188 L 431.074219 44.992188 L 431.074219 84.703125 Z M 391.363281 84.703125 " fill-opacity="1" fill-rule="nonzero"/></g></g><g clip-path="url(#e9f4f9ca49)"><g clip-path="url(#ab4b326087)"><path fill="#ffde59" d="M 152.5625 460.71875 L 152.5625 420.214844 L 193.070312 420.214844 L 193.070312 460.71875 Z M 152.5625 460.71875 " fill-opacity="1" fill-rule="nonzero"/></g></g><g fill="#011c50" fill-opacity="1"><g transform="translate(82.557291, 332.878666)"><g><path d="M 5.144531 -3.082031 L 5.144531 -14.742188 L 1.195312 -14.742188 L 1.195312 0 L 11.773438 0 L 11.773438 -3.082031 Z M 5.144531 -3.082031 "/></g></g></g><g fill="#011c50" fill-opacity="1"><g transform="translate(94.861551, 332.878666)"><g><path d="M 1.0625 -12.4375 L 5.011719 -12.4375 L 5.011719 -14.742188 L 1.0625 -14.742188 Z M 1.128906 0 L 4.945312 0 L 4.945312 -11.085938 L 1.128906 -11.085938 Z M 1.128906 0 "/></g></g></g><g fill="#011c50" fill-opacity="1"><g transform="translate(100.958257, 332.878666)"><g><path d="M 0.730469 -5.542969 C 0.730469 -2.550781 2.460938 0.355469 7.050781 0.355469 C 11.171875 0.355469 13.015625 -2.0625 13.101562 -4.699219 L 9.355469 -4.699219 C 9.222656 -3.480469 8.558594 -2.617188 6.984375 -2.617188 C 5.410156 -2.617188 4.542969 -3.324219 4.542969 -5.542969 C 4.542969 -7.757812 5.453125 -8.46875 7.050781 -8.46875 C 8.535156 -8.46875 9.199219 -7.714844 9.3125 -6.40625 L 13.058594 -6.40625 C 12.96875 -9.179688 11.019531 -11.441406 7.003906 -11.441406 C 2.417969 -11.441406 0.730469 -8.535156 0.730469 -5.542969 Z M 0.730469 -5.542969 "/></g></g></g><g fill="#011c50" fill-opacity="1"><g transform="translate(114.681386, 332.878666)"><g><path d="M 6.9375 -2.195312 C 5.519531 -2.195312 4.65625 -2.792969 4.433594 -4.566406 L 12.746094 -4.566406 C 12.792969 -4.8125 12.8125 -5.144531 12.8125 -5.5 C 12.8125 -8.578125 11.375 -11.441406 6.851562 -11.441406 C 2.59375 -11.441406 0.730469 -8.777344 0.730469 -5.566406 C 0.730469 -2.527344 2.328125 0.355469 6.851562 0.355469 C 10.886719 0.355469 12.394531 -1.441406 12.769531 -3.347656 L 9.066406 -3.347656 C 8.757812 -2.683594 8.070312 -2.195312 6.9375 -2.195312 Z M 6.894531 -8.933594 C 8.378906 -8.933594 9.066406 -8.179688 9.199219 -6.785156 L 4.476562 -6.785156 C 4.722656 -8.378906 5.519531 -8.933594 6.894531 -8.933594 Z M 6.894531 -8.933594 "/></g></g></g><g fill="#011c50" fill-opacity="1"><g transform="translate(128.182816, 332.878666)"><g><path d="M 9.179688 -11.085938 L 9.179688 -5.875 C 9.179688 -3.746094 8.292969 -2.726562 6.804688 -2.726562 C 5.453125 -2.726562 4.855469 -3.523438 4.855469 -5.011719 L 4.855469 -11.085938 L 1.042969 -11.085938 L 1.042969 -4.34375 C 1.042969 -1.441406 2.351562 0.355469 5.253906 0.355469 C 7.207031 0.355469 8.46875 -0.578125 9.179688 -2.015625 L 9.179688 0 L 12.992188 0 L 12.992188 -11.085938 Z M 9.179688 -11.085938 "/></g></g></g><g fill="#011c50" fill-opacity="1"><g transform="translate(142.305004, 332.878666)"><g><path d="M 1.128906 0 L 4.945312 0 L 4.945312 -15.519531 L 1.128906 -15.519531 Z M 1.128906 0 "/></g></g></g><g fill="#011c50" fill-opacity="1"><g transform="translate(82.557291, 363.91642)"><g><path d="M 14.078125 -14.742188 L 0.6875 -14.742188 L 0.6875 -11.660156 L 5.429688 -11.660156 L 5.429688 0 L 9.355469 0 L 9.355469 -11.660156 L 14.078125 -11.660156 Z M 14.078125 -14.742188 "/></g></g></g><g fill="#011c50" fill-opacity="1"><g transform="translate(97.322403, 363.91642)"><g><path d="M 6.9375 -2.195312 C 5.519531 -2.195312 4.65625 -2.792969 4.433594 -4.566406 L 12.746094 -4.566406 C 12.792969 -4.8125 12.8125 -5.144531 12.8125 -5.5 C 12.8125 -8.578125 11.375 -11.441406 6.851562 -11.441406 C 2.59375 -11.441406 0.730469 -8.777344 0.730469 -5.566406 C 0.730469 -2.527344 2.328125 0.355469 6.851562 0.355469 C 10.886719 0.355469 12.394531 -1.441406 12.769531 -3.347656 L 9.066406 -3.347656 C 8.757812 -2.683594 8.070312 -2.195312 6.9375 -2.195312 Z M 6.894531 -8.933594 C 8.378906 -8.933594 9.066406 -8.179688 9.199219 -6.785156 L 4.476562 -6.785156 C 4.722656 -8.378906 5.519531 -8.933594 6.894531 -8.933594 Z M 6.894531 -8.933594 "/></g></g></g><g fill="#011c50" fill-opacity="1"><g transform="translate(110.823833, 363.91642)"><g><path d="M 7.070312 0.355469 C 11.773438 0.355469 13.433594 -2.570312 13.433594 -5.542969 C 13.433594 -8.511719 11.773438 -11.441406 7.070312 -11.441406 C 2.371094 -11.441406 0.730469 -8.511719 0.730469 -5.542969 C 0.730469 -2.550781 2.371094 0.355469 7.070312 0.355469 Z M 4.542969 -5.542969 C 4.542969 -7.757812 5.253906 -8.46875 7.070312 -8.46875 C 8.890625 -8.46875 9.597656 -7.757812 9.597656 -5.542969 C 9.597656 -3.324219 8.890625 -2.617188 7.070312 -2.617188 C 5.253906 -2.617188 4.542969 -3.324219 4.542969 -5.542969 Z M 4.542969 -5.542969 "/></g></g></g><g fill="#011c50" fill-opacity="1"><g transform="translate(124.968185, 363.91642)"><g><path d="M 7.980469 -11.261719 C 6.183594 -11.261719 5.277344 -10.398438 4.832031 -8.824219 L 4.832031 -11.085938 L 1.128906 -11.085938 L 1.128906 0 L 4.945312 0 L 4.945312 -4.433594 C 4.945312 -6.671875 5.71875 -7.558594 7.558594 -7.558594 L 8.914062 -7.558594 L 8.914062 -11.261719 Z M 7.980469 -11.261719 "/></g></g></g><g fill="#011c50" fill-opacity="1"><g transform="translate(134.279518, 363.91642)"><g><path d="M 6.9375 -2.195312 C 5.519531 -2.195312 4.65625 -2.792969 4.433594 -4.566406 L 12.746094 -4.566406 C 12.792969 -4.8125 12.8125 -5.144531 12.8125 -5.5 C 12.8125 -8.578125 11.375 -11.441406 6.851562 -11.441406 C 2.59375 -11.441406 0.730469 -8.777344 0.730469 -5.566406 C 0.730469 -2.527344 2.328125 0.355469 6.851562 0.355469 C 10.886719 0.355469 12.394531 -1.441406 12.769531 -3.347656 L 9.066406 -3.347656 C 8.757812 -2.683594 8.070312 -2.195312 6.9375 -2.195312 Z M 6.894531 -8.933594 C 8.378906 -8.933594 9.066406 -8.179688 9.199219 -6.785156 L 4.476562 -6.785156 C 4.722656 -8.378906 5.519531 -8.933594 6.894531 -8.933594 Z M 6.894531 -8.933594 "/></g></g></g><g fill="#011c50" fill-opacity="1"><g transform="translate(147.780945, 363.91642)"><g><path d="M 6.585938 0 L 8.601562 0 L 8.601562 -3.015625 L 5.941406 -3.015625 L 5.941406 -8.226562 L 8.957031 -8.226562 L 8.957031 -11.085938 L 5.941406 -11.085938 L 5.941406 -13.765625 L 4.011719 -13.765625 L 2.4375 -10.996094 L 0.175781 -10 L 0.175781 -8.226562 L 2.128906 -8.226562 L 2.128906 -4.367188 C 2.128906 -1.507812 3.191406 0 6.585938 0 Z M 6.585938 0 "/></g></g></g><g fill="#011c50" fill-opacity="1"><g transform="translate(157.313977, 363.91642)"><g><path d="M 1.0625 -12.4375 L 5.011719 -12.4375 L 5.011719 -14.742188 L 1.0625 -14.742188 Z M 1.128906 0 L 4.945312 0 L 4.945312 -11.085938 L 1.128906 -11.085938 Z M 1.128906 0 "/></g></g><g transform="translate(163.410679, 363.91642)"><g><path d="M 0.730469 -5.542969 C 0.730469 -2.550781 2.460938 0.355469 7.050781 0.355469 C 11.171875 0.355469 13.015625 -2.0625 13.101562 -4.699219 L 9.355469 -4.699219 C 9.222656 -3.480469 8.558594 -2.617188 6.984375 -2.617188 C 5.410156 -2.617188 4.542969 -3.324219 4.542969 -5.542969 C 4.542969 -7.757812 5.453125 -8.46875 7.050781 -8.46875 C 8.535156 -8.46875 9.199219 -7.714844 9.3125 -6.40625 L 13.058594 -6.40625 C 12.96875 -9.179688 11.019531 -11.441406 7.003906 -11.441406 C 2.417969 -11.441406 0.730469 -8.535156 0.730469 -5.542969 Z M 0.730469 -5.542969 "/></g></g></g><g fill="#011c50" fill-opacity="1"><g transform="translate(82.557291, 394.954175)"><g><path d="M 0.511719 -14.742188 L 0.796875 -8.578125 L 3.304688 -8.578125 L 3.613281 -14.742188 Z M 4.542969 -14.742188 L 4.855469 -8.578125 L 7.359375 -8.578125 L 7.671875 -14.742188 Z M 4.542969 -14.742188 "/></g></g></g><g fill="#011c50" fill-opacity="1"><g transform="translate(90.715792, 394.954175)"><g><path d="M 10.285156 -11.660156 L 10.285156 -14.742188 L 1.195312 -14.742188 L 1.195312 -11.660156 L 3.792969 -11.660156 L 3.792969 -3.082031 L 1.195312 -3.082031 L 1.195312 0 L 10.285156 0 L 10.285156 -3.082031 L 7.691406 -3.082031 L 7.691406 -11.660156 Z M 10.285156 -11.660156 "/></g></g></g><g fill="#011c50" fill-opacity="1"><g transform="translate(102.199768, 394.954175)"><g><path d="M 7.070312 0.355469 C 11.773438 0.355469 13.433594 -2.570312 13.433594 -5.542969 C 13.433594 -8.511719 11.773438 -11.441406 7.070312 -11.441406 C 2.371094 -11.441406 0.730469 -8.511719 0.730469 -5.542969 C 0.730469 -2.550781 2.371094 0.355469 7.070312 0.355469 Z M 4.542969 -5.542969 C 4.542969 -7.757812 5.253906 -8.46875 7.070312 -8.46875 C 8.890625 -8.46875 9.597656 -7.757812 9.597656 -5.542969 C 9.597656 -3.324219 8.890625 -2.617188 7.070312 -2.617188 C 5.253906 -2.617188 4.542969 -3.324219 4.542969 -5.542969 Z M 4.542969 -5.542969 "/></g></g></g><g fill="#011c50" fill-opacity="1"><g transform="translate(116.344123, 394.954175)"><g><path d="M 8.933594 -11.441406 C 6.960938 -11.441406 5.675781 -10.484375 4.945312 -9.023438 L 4.945312 -11.085938 L 1.128906 -11.085938 L 1.128906 0 L 4.945312 0 L 4.945312 -5.210938 C 4.945312 -7.382812 5.832031 -8.359375 7.359375 -8.359375 C 8.691406 -8.359375 9.289062 -7.558594 9.289062 -6.097656 L 9.289062 0 L 13.101562 0 L 13.101562 -6.738281 C 13.101562 -9.644531 11.839844 -11.441406 8.933594 -11.441406 Z M 8.933594 -11.441406 "/></g></g></g><g fill="#011c50" fill-opacity="1"><g transform="translate(130.466309, 394.954175)"><g/></g></g><g fill="#011c50" fill-opacity="1"><g transform="translate(136.163958, 394.954175)"><g><path d="M 5.144531 -3.082031 L 5.144531 -14.742188 L 1.195312 -14.742188 L 1.195312 0 L 11.773438 0 L 11.773438 -3.082031 Z M 5.144531 -3.082031 "/></g></g></g><g fill="#011c50" fill-opacity="1"><g transform="translate(148.468217, 394.954175)"><g><path d="M 9.179688 -11.085938 L 9.179688 -5.875 C 9.179688 -3.746094 8.292969 -2.726562 6.804688 -2.726562 C 5.453125 -2.726562 4.855469 -3.523438 4.855469 -5.011719 L 4.855469 -11.085938 L 1.042969 -11.085938 L 1.042969 -4.34375 C 1.042969 -1.441406 2.351562 0.355469 5.253906 0.355469 C 7.207031 0.355469 8.46875 -0.578125 9.179688 -2.015625 L 9.179688 0 L 12.992188 0 L 12.992188 -11.085938 Z M 9.179688 -11.085938 "/></g></g></g><g fill="#011c50" fill-opacity="1"><g transform="translate(162.590406, 394.954175)"><g><path d="M 0.730469 -5.542969 C 0.730469 -2.550781 2.460938 0.355469 7.050781 0.355469 C 11.171875 0.355469 13.015625 -2.0625 13.101562 -4.699219 L 9.355469 -4.699219 C 9.222656 -3.480469 8.558594 -2.617188 6.984375 -2.617188 C 5.410156 -2.617188 4.542969 -3.324219 4.542969 -5.542969 C 4.542969 -7.757812 5.453125 -8.46875 7.050781 -8.46875 C 8.535156 -8.46875 9.199219 -7.714844 9.3125 -6.40625 L 13.058594 -6.40625 C 12.96875 -9.179688 11.019531 -11.441406 7.003906 -11.441406 C 2.417969 -11.441406 0.730469 -8.535156 0.730469 -5.542969 Z M 0.730469 -5.542969 "/></g></g></g><g fill="#011c50" fill-opacity="1"><g transform="translate(176.313533, 394.954175)"><g><path d="M 4.523438 0.289062 C 6.761719 0.289062 8.136719 -0.6875 8.691406 -2.304688 C 8.691406 -1.398438 8.757812 -0.644531 8.867188 0 L 12.148438 0 C 12.015625 -0.910156 11.949219 -1.882812 11.949219 -3.058594 L 11.949219 -7.472656 C 11.949219 -10 10.21875 -11.441406 6.71875 -11.441406 C 3.214844 -11.441406 1.175781 -9.753906 1.0625 -7.40625 L 4.765625 -7.40625 C 4.789062 -8.378906 5.429688 -8.914062 6.761719 -8.914062 C 8.027344 -8.914062 8.425781 -8.511719 8.425781 -7.847656 C 8.425781 -7.273438 8.160156 -7.003906 7.140625 -6.828125 L 4.632812 -6.386719 C 1.574219 -5.875 0.84375 -4.699219 0.84375 -2.925781 C 0.84375 -0.976562 2.304688 0.289062 4.523438 0.289062 Z M 5.964844 -2.195312 C 5.1875 -2.195312 4.589844 -2.59375 4.589844 -3.371094 C 4.589844 -4.125 4.988281 -4.5 6.050781 -4.765625 L 6.695312 -4.921875 C 7.382812 -5.097656 7.890625 -5.230469 8.425781 -5.632812 L 8.425781 -5.210938 C 8.425781 -3.214844 7.40625 -2.195312 5.964844 -2.195312 Z M 5.964844 -2.195312 "/></g></g></g><g fill="#011c50" fill-opacity="1"><g transform="translate(189.393733, 394.954175)"><g><path d="M 0.511719 -14.742188 L 0.796875 -8.578125 L 3.304688 -8.578125 L 3.613281 -14.742188 Z M 4.542969 -14.742188 L 4.855469 -8.578125 L 7.359375 -8.578125 L 7.671875 -14.742188 Z M 4.542969 -14.742188 "/></g></g></g><path stroke-linecap="round" transform="matrix(0.00000000000000001, 0.171457, -0.171341, 0.00000000000000001, 66.373838, 316.046666)" fill="none" stroke-linejoin="miter" d="M 17.498289 17.502159 L 466.179641 17.502159 " stroke="#011c50" stroke-width="35" stroke-opacity="1" stroke-miterlimit="4"/><g clip-path="url(#e92274268f)"><g clip-path="url(#88a4334954)"><path fill="#011c50" d="M 1169.664062 138.519531 L 1169.664062 98.808594 L 1209.375 98.808594 L 1209.375 138.519531 Z M 1169.664062 138.519531 " fill-opacity="1" fill-rule="nonzero"/></g></g><g fill="#011c50" fill-opacity="1"><g transform="translate(29.969553, 198.584733)"><g><path d="M 44.453125 -79.25 L 8.105469 -79.25 L 8.105469 0 L 18.113281 0 L 18.113281 -32.890625 L 43.976562 -32.890625 C 61.496094 -32.890625 68.40625 -43.5 68.40625 -56.132812 C 68.40625 -68.882812 61.496094 -79.25 44.453125 -79.25 Z M 41.949219 -40.878906 L 18.113281 -40.878906 L 18.113281 -71.265625 L 42.308594 -71.265625 C 53.75 -71.265625 58.039062 -65.546875 58.039062 -56.132812 C 58.039062 -47.074219 53.75 -40.878906 41.949219 -40.878906 Z M 41.949219 -40.878906 "/></g></g></g><g fill="#011c50" fill-opacity="1"><g transform="translate(103.381585, 198.584733)"><g><path d="M 40.042969 -60.421875 C 28.722656 -60.421875 21.808594 -53.75 18.234375 -43.855469 L 18.234375 -59.585938 L 8.699219 -59.585938 L 8.699219 0 L 18.234375 0 L 18.234375 -21.929688 C 18.234375 -38.730469 22.046875 -51.601562 39.683594 -51.007812 L 42.1875 -51.007812 L 42.1875 -60.421875 Z M 40.042969 -60.421875 "/></g></g></g><g fill="#011c50" fill-opacity="1"><g transform="translate(149.264104, 198.584733)"><g><path d="M 35.632812 -5.363281 C 23.714844 -5.363281 15.851562 -11.320312 15.136719 -27.648438 L 63.042969 -27.648438 C 63.28125 -29.078125 63.28125 -30.269531 63.28125 -31.820312 C 63.28125 -49.21875 53.152344 -61.496094 35.277344 -61.496094 C 15.492188 -61.496094 5.71875 -47.671875 5.71875 -29.914062 C 5.71875 -11.917969 14.777344 1.90625 35.277344 1.90625 C 55.058594 1.90625 61.972656 -9.296875 63.164062 -18.351562 L 54.464844 -18.351562 C 52.675781 -10.84375 47.3125 -5.363281 35.632812 -5.363281 Z M 35.394531 -54.226562 C 46.476562 -54.226562 53.507812 -48.503906 53.988281 -34.800781 L 15.375 -34.800781 C 16.683594 -48.863281 24.074219 -54.226562 35.394531 -54.226562 Z M 35.394531 -54.226562 "/></g></g></g><g fill="#011c50" fill-opacity="1"><g transform="translate(217.909131, 198.584733)"><g><path d="M 55.417969 -59.585938 L 55.417969 -49.339844 C 51.363281 -56.964844 44.09375 -61.257812 33.25 -61.257812 C 14.539062 -61.257812 5.71875 -49.578125 5.71875 -31.34375 C 5.71875 -12.988281 14.539062 -1.3125 33.25 -1.3125 C 43.976562 -1.3125 51.363281 -5.125 55.417969 -12.871094 L 55.417969 0 C 55.417969 12.75 49.578125 17.636719 35.515625 17.636719 C 22.285156 17.636719 17.28125 11.679688 16.566406 3.8125 L 7.152344 3.8125 C 8.222656 17.398438 17.757812 25.144531 35.515625 25.144531 C 57.203125 25.144531 64.949219 15.96875 64.949219 0.121094 L 64.949219 -59.585938 Z M 35.515625 -8.820312 C 21.929688 -8.820312 15.492188 -15.253906 15.492188 -31.34375 C 15.492188 -47.433594 21.929688 -53.75 35.515625 -53.75 C 48.148438 -53.75 55.417969 -47.433594 55.417969 -31.34375 C 55.417969 -15.136719 48.148438 -8.820312 35.515625 -8.820312 Z M 35.515625 -8.820312 "/></g></g></g><g fill="#011c50" fill-opacity="1"><g transform="translate(291.321155, 198.584733)"><g><path d="M 19.304688 -79.25 C 19.78125 -73.53125 23.238281 -66.976562 33.25 -66.976562 C 43.261719 -66.976562 46.835938 -73.53125 47.3125 -79.25 L 41.472656 -79.25 C 41.117188 -75.320312 38.375 -72.695312 33.25 -72.695312 C 28.246094 -72.695312 25.503906 -75.320312 25.027344 -79.25 Z M 26.574219 1.550781 C 40.402344 1.550781 46.714844 -6.792969 48.980469 -13.945312 C 48.980469 -9.535156 49.339844 -5.125 49.816406 0 L 58.515625 0 C 57.917969 -5.839844 57.800781 -10.488281 57.800781 -14.777344 L 57.800781 -43.378906 C 57.800781 -54.105469 50.410156 -61.613281 34.085938 -61.613281 C 17.636719 -61.613281 8.699219 -53.507812 8.34375 -40.878906 L 17.757812 -40.878906 C 18.351562 -48.625 22.761719 -54.105469 34.441406 -54.105469 C 46 -54.105469 49.101562 -49.457031 49.101562 -43.378906 C 49.101562 -38.851562 46.476562 -37.183594 40.160156 -36.109375 L 25.027344 -33.609375 C 12.15625 -31.460938 6.914062 -25.382812 6.914062 -15.730469 C 6.914062 -4.410156 15.136719 1.550781 26.574219 1.550781 Z M 28.484375 -5.957031 C 21.453125 -5.957031 16.566406 -9.296875 16.566406 -16.089844 C 16.566406 -22.523438 20.378906 -25.621094 28.484375 -27.292969 L 38.375 -29.316406 C 42.902344 -30.269531 46.121094 -31.222656 49.101562 -33.367188 L 49.101562 -28.246094 C 49.101562 -16.921875 42.546875 -5.957031 28.484375 -5.957031 Z M 28.484375 -5.957031 "/></g></g></g><g fill="#011c50" fill-opacity="1"><g transform="translate(356.629269, 198.584733)"><g><path d="M 28.125 0 L 42.1875 0 L 42.1875 -7.746094 L 23.238281 -7.746094 L 23.238281 -52.078125 L 42.902344 -52.078125 L 42.902344 -59.585938 L 23.238281 -59.585938 L 23.238281 -72.816406 L 18.113281 -72.816406 L 14.539062 -60.421875 L 2.382812 -57.441406 L 2.382812 -52.078125 L 13.707031 -52.078125 L 13.707031 -13.945312 C 13.707031 -4.410156 16.683594 0 28.125 0 Z M 28.125 0 "/></g></g></g><g fill="#011c50" fill-opacity="1"><g transform="translate(403.226838, 198.584733)"><g><path d="M 7.390625 -69.359375 L 19.664062 -69.359375 L 19.664062 -79.25 L 7.390625 -79.25 Z M 8.699219 0 L 18.234375 0 L 18.234375 -59.585938 L 8.699219 -59.585938 Z M 8.699219 0 "/></g></g></g><g fill="#011c50" fill-opacity="1"><g transform="translate(430.279657, 198.584733)"><g><path d="M 40.042969 -60.421875 C 28.722656 -60.421875 21.808594 -53.75 18.234375 -43.855469 L 18.234375 -59.585938 L 8.699219 -59.585938 L 8.699219 0 L 18.234375 0 L 18.234375 -21.929688 C 18.234375 -38.730469 22.046875 -51.601562 39.683594 -51.007812 L 42.1875 -51.007812 L 42.1875 -60.421875 Z M 40.042969 -60.421875 "/></g></g><g transform="translate(476.162169, 198.584733)"><g><path d="M 35.632812 -5.363281 C 23.714844 -5.363281 15.851562 -11.320312 15.136719 -27.648438 L 63.042969 -27.648438 C 63.28125 -29.078125 63.28125 -30.269531 63.28125 -31.820312 C 63.28125 -49.21875 53.152344 -61.496094 35.277344 -61.496094 C 15.492188 -61.496094 5.71875 -47.671875 5.71875 -29.914062 C 5.71875 -11.917969 14.777344 1.90625 35.277344 1.90625 C 55.058594 1.90625 61.972656 -9.296875 63.164062 -18.351562 L 54.464844 -18.351562 C 52.675781 -10.84375 47.3125 -5.363281 35.632812 -5.363281 Z M 35.394531 -54.226562 C 46.476562 -54.226562 53.507812 -48.503906 53.988281 -34.800781 L 15.375 -34.800781 C 16.683594 -48.863281 24.074219 -54.226562 35.394531 -54.226562 Z M 35.394531 -54.226562 "/></g></g></g><g fill="#011c50" fill-opacity="1"><g transform="translate(251.785461, 386.961701)"><g><path d="M 5.375 -8.390625 L 4.140625 -8.390625 L 3.96875 -12.25 L 5.5625 -12.25 Z M 2.15625 -8.390625 L 0.9375 -8.390625 L 0.75 -12.25 L 2.359375 -12.25 Z M 2.15625 -8.390625 "/></g></g></g><g fill="#011c50" fill-opacity="1"><g transform="translate(258.103246, 386.961701)"><g><path d="M 6.25 -10.890625 L 6.25 0 L 4.609375 0 L 4.609375 -10.890625 L 0.40625 -10.890625 L 0.40625 -12.25 L 10.46875 -12.25 L 10.46875 -10.890625 Z M 6.25 -10.890625 "/></g></g></g><g fill="#011c50" fill-opacity="1"><g transform="translate(268.974701, 386.961701)"><g><path d="M 1.234375 0 L 1.234375 -7.21875 C 1.234375 -7.875 1.21875 -8.601562 1.1875 -9.40625 L 2.65625 -9.40625 C 2.707031 -8.332031 2.734375 -7.691406 2.734375 -7.484375 L 2.765625 -7.484375 C 3.015625 -8.285156 3.300781 -8.832031 3.625 -9.125 C 3.945312 -9.425781 4.40625 -9.578125 5 -9.578125 C 5.207031 -9.578125 5.414062 -9.546875 5.625 -9.484375 L 5.625 -8.0625 C 5.414062 -8.113281 5.140625 -8.140625 4.796875 -8.140625 C 4.148438 -8.140625 3.65625 -7.859375 3.3125 -7.296875 C 2.96875 -6.742188 2.796875 -5.945312 2.796875 -4.90625 L 2.796875 0 Z M 1.234375 0 "/></g></g></g><g fill="#011c50" fill-opacity="1"><g transform="translate(274.901425, 386.961701)"><g><path d="M 3.59375 0.171875 C 2.65625 0.171875 1.945312 -0.078125 1.46875 -0.578125 C 0.988281 -1.078125 0.75 -1.757812 0.75 -2.625 C 0.75 -3.59375 1.066406 -4.335938 1.703125 -4.859375 C 2.347656 -5.378906 3.382812 -5.660156 4.8125 -5.703125 L 6.921875 -5.734375 L 6.921875 -6.25 C 6.921875 -7.007812 6.757812 -7.554688 6.4375 -7.890625 C 6.113281 -8.222656 5.601562 -8.390625 4.90625 -8.390625 C 4.207031 -8.390625 3.695312 -8.269531 3.375 -8.03125 C 3.0625 -7.789062 2.875 -7.410156 2.8125 -6.890625 L 1.171875 -7.03125 C 1.441406 -8.726562 2.695312 -9.578125 4.9375 -9.578125 C 6.125 -9.578125 7.015625 -9.304688 7.609375 -8.765625 C 8.203125 -8.222656 8.5 -7.4375 8.5 -6.40625 L 8.5 -2.359375 C 8.5 -1.898438 8.5625 -1.550781 8.6875 -1.3125 C 8.8125 -1.082031 9.046875 -0.96875 9.390625 -0.96875 C 9.535156 -0.96875 9.703125 -0.988281 9.890625 -1.03125 L 9.890625 -0.046875 C 9.503906 0.046875 9.101562 0.09375 8.6875 0.09375 C 8.113281 0.09375 7.691406 -0.0546875 7.421875 -0.359375 C 7.160156 -0.671875 7.015625 -1.148438 6.984375 -1.796875 L 6.921875 -1.796875 C 6.523438 -1.078125 6.0625 -0.566406 5.53125 -0.265625 C 5 0.0234375 4.351562 0.171875 3.59375 0.171875 Z M 3.953125 -1 C 4.523438 -1 5.035156 -1.128906 5.484375 -1.390625 C 5.929688 -1.648438 6.28125 -2.003906 6.53125 -2.453125 C 6.789062 -2.910156 6.921875 -3.378906 6.921875 -3.859375 L 6.921875 -4.640625 L 5.21875 -4.609375 C 4.476562 -4.597656 3.914062 -4.519531 3.53125 -4.375 C 3.15625 -4.238281 2.863281 -4.023438 2.65625 -3.734375 C 2.457031 -3.441406 2.359375 -3.0625 2.359375 -2.59375 C 2.359375 -2.082031 2.492188 -1.6875 2.765625 -1.40625 C 3.046875 -1.132812 3.441406 -1 3.953125 -1 Z M 3.953125 -1 "/></g></g></g><g fill="#011c50" fill-opacity="1"><g transform="translate(284.799576, 386.961701)"><g><path d="M 4.8125 -0.0625 C 4.300781 0.0703125 3.773438 0.140625 3.234375 0.140625 C 1.984375 0.140625 1.359375 -0.566406 1.359375 -1.984375 L 1.359375 -8.265625 L 0.265625 -8.265625 L 0.265625 -9.40625 L 1.421875 -9.40625 L 1.875 -11.5 L 2.921875 -11.5 L 2.921875 -9.40625 L 4.65625 -9.40625 L 4.65625 -8.265625 L 2.921875 -8.265625 L 2.921875 -2.328125 C 2.921875 -1.878906 2.992188 -1.5625 3.140625 -1.375 C 3.285156 -1.195312 3.539062 -1.109375 3.90625 -1.109375 C 4.113281 -1.109375 4.414062 -1.144531 4.8125 -1.21875 Z M 4.8125 -0.0625 "/></g></g></g><g fill="#011c50" fill-opacity="1"><g transform="translate(289.744308, 386.961701)"><g><path d="M 2.390625 -4.375 C 2.390625 -3.289062 2.613281 -2.457031 3.0625 -1.875 C 3.507812 -1.289062 4.160156 -1 5.015625 -1 C 5.703125 -1 6.25 -1.132812 6.65625 -1.40625 C 7.0625 -1.675781 7.335938 -2.019531 7.484375 -2.4375 L 8.859375 -2.046875 C 8.296875 -0.566406 7.015625 0.171875 5.015625 0.171875 C 3.628906 0.171875 2.570312 -0.238281 1.84375 -1.0625 C 1.113281 -1.894531 0.75 -3.128906 0.75 -4.765625 C 0.75 -6.316406 1.113281 -7.503906 1.84375 -8.328125 C 2.570312 -9.160156 3.613281 -9.578125 4.96875 -9.578125 C 7.726562 -9.578125 9.109375 -7.910156 9.109375 -4.578125 L 9.109375 -4.375 Z M 7.484375 -5.5625 C 7.398438 -6.5625 7.148438 -7.285156 6.734375 -7.734375 C 6.316406 -8.191406 5.71875 -8.421875 4.9375 -8.421875 C 4.175781 -8.421875 3.570312 -8.164062 3.125 -7.65625 C 2.6875 -7.15625 2.453125 -6.457031 2.421875 -5.5625 Z M 7.484375 -5.5625 "/></g></g></g><g fill="#011c50" fill-opacity="1"><g transform="translate(299.642459, 386.961701)"><g><path d="M 3.59375 0.171875 C 2.65625 0.171875 1.945312 -0.078125 1.46875 -0.578125 C 0.988281 -1.078125 0.75 -1.757812 0.75 -2.625 C 0.75 -3.59375 1.066406 -4.335938 1.703125 -4.859375 C 2.347656 -5.378906 3.382812 -5.660156 4.8125 -5.703125 L 6.921875 -5.734375 L 6.921875 -6.25 C 6.921875 -7.007812 6.757812 -7.554688 6.4375 -7.890625 C 6.113281 -8.222656 5.601562 -8.390625 4.90625 -8.390625 C 4.207031 -8.390625 3.695312 -8.269531 3.375 -8.03125 C 3.0625 -7.789062 2.875 -7.410156 2.8125 -6.890625 L 1.171875 -7.03125 C 1.441406 -8.726562 2.695312 -9.578125 4.9375 -9.578125 C 6.125 -9.578125 7.015625 -9.304688 7.609375 -8.765625 C 8.203125 -8.222656 8.5 -7.4375 8.5 -6.40625 L 8.5 -2.359375 C 8.5 -1.898438 8.5625 -1.550781 8.6875 -1.3125 C 8.8125 -1.082031 9.046875 -0.96875 9.390625 -0.96875 C 9.535156 -0.96875 9.703125 -0.988281 9.890625 -1.03125 L 9.890625 -0.046875 C 9.503906 0.046875 9.101562 0.09375 8.6875 0.09375 C 8.113281 0.09375 7.691406 -0.0546875 7.421875 -0.359375 C 7.160156 -0.671875 7.015625 -1.148438 6.984375 -1.796875 L 6.921875 -1.796875 C 6.523438 -1.078125 6.0625 -0.566406 5.53125 -0.265625 C 5 0.0234375 4.351562 0.171875 3.59375 0.171875 Z M 3.953125 -1 C 4.523438 -1 5.035156 -1.128906 5.484375 -1.390625 C 5.929688 -1.648438 6.28125 -2.003906 6.53125 -2.453125 C 6.789062 -2.910156 6.921875 -3.378906 6.921875 -3.859375 L 6.921875 -4.640625 L 5.21875 -4.609375 C 4.476562 -4.597656 3.914062 -4.519531 3.53125 -4.375 C 3.15625 -4.238281 2.863281 -4.023438 2.65625 -3.734375 C 2.457031 -3.441406 2.359375 -3.0625 2.359375 -2.59375 C 2.359375 -2.082031 2.492188 -1.6875 2.765625 -1.40625 C 3.046875 -1.132812 3.441406 -1 3.953125 -1 Z M 3.953125 -1 "/></g></g></g><g fill="#011c50" fill-opacity="1"><g transform="translate(309.540611, 386.961701)"><g><path d="M 0.71875 0 L 0.71875 -1.1875 L 5.984375 -8.1875 L 1.015625 -8.1875 L 1.015625 -9.40625 L 7.828125 -9.40625 L 7.828125 -8.21875 L 2.5625 -1.203125 L 8.015625 -1.203125 L 8.015625 0 Z M 0.71875 0 "/></g></g></g><g fill="#011c50" fill-opacity="1"><g transform="translate(318.439387, 386.961701)"><g><path d="M 3.59375 0.171875 C 2.65625 0.171875 1.945312 -0.078125 1.46875 -0.578125 C 0.988281 -1.078125 0.75 -1.757812 0.75 -2.625 C 0.75 -3.59375 1.066406 -4.335938 1.703125 -4.859375 C 2.347656 -5.378906 3.382812 -5.660156 4.8125 -5.703125 L 6.921875 -5.734375 L 6.921875 -6.25 C 6.921875 -7.007812 6.757812 -7.554688 6.4375 -7.890625 C 6.113281 -8.222656 5.601562 -8.390625 4.90625 -8.390625 C 4.207031 -8.390625 3.695312 -8.269531 3.375 -8.03125 C 3.0625 -7.789062 2.875 -7.410156 2.8125 -6.890625 L 1.171875 -7.03125 C 1.441406 -8.726562 2.695312 -9.578125 4.9375 -9.578125 C 6.125 -9.578125 7.015625 -9.304688 7.609375 -8.765625 C 8.203125 -8.222656 8.5 -7.4375 8.5 -6.40625 L 8.5 -2.359375 C 8.5 -1.898438 8.5625 -1.550781 8.6875 -1.3125 C 8.8125 -1.082031 9.046875 -0.96875 9.390625 -0.96875 C 9.535156 -0.96875 9.703125 -0.988281 9.890625 -1.03125 L 9.890625 -0.046875 C 9.503906 0.046875 9.101562 0.09375 8.6875 0.09375 C 8.113281 0.09375 7.691406 -0.0546875 7.421875 -0.359375 C 7.160156 -0.671875 7.015625 -1.148438 6.984375 -1.796875 L 6.921875 -1.796875 C 6.523438 -1.078125 6.0625 -0.566406 5.53125 -0.265625 C 5 0.0234375 4.351562 0.171875 3.59375 0.171875 Z M 3.953125 -1 C 4.523438 -1 5.035156 -1.128906 5.484375 -1.390625 C 5.929688 -1.648438 6.28125 -2.003906 6.53125 -2.453125 C 6.789062 -2.910156 6.921875 -3.378906 6.921875 -3.859375 L 6.921875 -4.640625 L 5.21875 -4.609375 C 4.476562 -4.597656 3.914062 -4.519531 3.53125 -4.375 C 3.15625 -4.238281 2.863281 -4.023438 2.65625 -3.734375 C 2.457031 -3.441406 2.359375 -3.0625 2.359375 -2.59375 C 2.359375 -2.082031 2.492188 -1.6875 2.765625 -1.40625 C 3.046875 -1.132812 3.441406 -1 3.953125 -1 Z M 4.859375 -10.4375 C 4.097656 -10.4375 3.453125 -10.679688 2.921875 -11.171875 C 2.398438 -11.660156 2.085938 -12.3125 1.984375 -13.125 L 3 -13.125 C 3.15625 -12.238281 3.78125 -11.796875 4.875 -11.796875 C 5.957031 -11.796875 6.582031 -12.238281 6.75 -13.125 L 7.765625 -13.125 C 7.640625 -12.300781 7.316406 -11.644531 6.796875 -11.15625 C 6.285156 -10.675781 5.640625 -10.4375 4.859375 -10.4375 Z M 4.859375 -10.4375 "/></g></g></g><g fill="#011c50" fill-opacity="1"><g transform="translate(328.337538, 386.961701)"><g/></g></g><g fill="#011c50" fill-opacity="1"><g transform="translate(333.282267, 386.961701)"><g><path d="M 3.140625 -8.265625 L 3.140625 0 L 1.578125 0 L 1.578125 -8.265625 L 0.25 -8.265625 L 0.25 -9.40625 L 1.578125 -9.40625 L 1.578125 -10.46875 C 1.578125 -11.320312 1.765625 -11.9375 2.140625 -12.3125 C 2.515625 -12.6875 3.085938 -12.875 3.859375 -12.875 C 4.296875 -12.875 4.664062 -12.84375 4.96875 -12.78125 L 4.96875 -11.578125 C 4.707031 -11.628906 4.476562 -11.65625 4.28125 -11.65625 C 3.875 -11.65625 3.582031 -11.550781 3.40625 -11.34375 C 3.226562 -11.144531 3.140625 -10.78125 3.140625 -10.25 L 3.140625 -9.40625 L 4.96875 -9.40625 L 4.96875 -8.265625 Z M 3.140625 -8.265625 "/></g></g></g><g fill="#011c50" fill-opacity="1"><g transform="translate(338.227001, 386.961701)"><g><path d="M 1.1875 -11.40625 L 1.1875 -12.890625 L 2.75 -12.890625 L 2.75 -11.40625 Z M 1.1875 0 L 1.1875 -9.40625 L 2.75 -9.40625 L 2.75 0 Z M 1.1875 0 "/></g></g></g><g fill="#011c50" fill-opacity="1"><g transform="translate(342.181043, 386.961701)"><g><path d="M 2.390625 -4.375 C 2.390625 -3.289062 2.613281 -2.457031 3.0625 -1.875 C 3.507812 -1.289062 4.160156 -1 5.015625 -1 C 5.703125 -1 6.25 -1.132812 6.65625 -1.40625 C 7.0625 -1.675781 7.335938 -2.019531 7.484375 -2.4375 L 8.859375 -2.046875 C 8.296875 -0.566406 7.015625 0.171875 5.015625 0.171875 C 3.628906 0.171875 2.570312 -0.238281 1.84375 -1.0625 C 1.113281 -1.894531 0.75 -3.128906 0.75 -4.765625 C 0.75 -6.316406 1.113281 -7.503906 1.84375 -8.328125 C 2.570312 -9.160156 3.613281 -9.578125 4.96875 -9.578125 C 7.726562 -9.578125 9.109375 -7.910156 9.109375 -4.578125 L 9.109375 -4.375 Z M 7.484375 -5.5625 C 7.398438 -6.5625 7.148438 -7.285156 6.734375 -7.734375 C 6.316406 -8.191406 5.71875 -8.421875 4.9375 -8.421875 C 4.175781 -8.421875 3.570312 -8.164062 3.125 -7.65625 C 2.6875 -7.15625 2.453125 -6.457031 2.421875 -5.5625 Z M 7.484375 -5.5625 "/></g></g></g><g fill="#011c50" fill-opacity="1"><g transform="translate(352.079194, 386.961701)"><g><path d="M 2.390625 -4.75 C 2.390625 -3.5 2.585938 -2.570312 2.984375 -1.96875 C 3.378906 -1.363281 3.972656 -1.0625 4.765625 -1.0625 C 5.316406 -1.0625 5.78125 -1.210938 6.15625 -1.515625 C 6.53125 -1.816406 6.757812 -2.28125 6.84375 -2.90625 L 8.421875 -2.796875 C 8.304688 -1.890625 7.921875 -1.164062 7.265625 -0.625 C 6.617188 -0.09375 5.800781 0.171875 4.8125 0.171875 C 3.488281 0.171875 2.476562 -0.238281 1.78125 -1.0625 C 1.09375 -1.894531 0.75 -3.109375 0.75 -4.703125 C 0.75 -6.285156 1.097656 -7.492188 1.796875 -8.328125 C 2.492188 -9.160156 3.488281 -9.578125 4.78125 -9.578125 C 5.75 -9.578125 6.550781 -9.328125 7.1875 -8.828125 C 7.820312 -8.328125 8.21875 -7.640625 8.375 -6.765625 L 6.765625 -6.640625 C 6.679688 -7.171875 6.472656 -7.585938 6.140625 -7.890625 C 5.816406 -8.191406 5.351562 -8.34375 4.75 -8.34375 C 3.914062 -8.34375 3.3125 -8.066406 2.9375 -7.515625 C 2.570312 -6.972656 2.390625 -6.050781 2.390625 -4.75 Z M 2.390625 -4.75 "/></g></g></g><g fill="#011c50" fill-opacity="1"><g transform="translate(360.97797, 386.961701)"><g><path d="M 3.59375 0.171875 C 2.65625 0.171875 1.945312 -0.078125 1.46875 -0.578125 C 0.988281 -1.078125 0.75 -1.757812 0.75 -2.625 C 0.75 -3.59375 1.066406 -4.335938 1.703125 -4.859375 C 2.347656 -5.378906 3.382812 -5.660156 4.8125 -5.703125 L 6.921875 -5.734375 L 6.921875 -6.25 C 6.921875 -7.007812 6.757812 -7.554688 6.4375 -7.890625 C 6.113281 -8.222656 5.601562 -8.390625 4.90625 -8.390625 C 4.207031 -8.390625 3.695312 -8.269531 3.375 -8.03125 C 3.0625 -7.789062 2.875 -7.410156 2.8125 -6.890625 L 1.171875 -7.03125 C 1.441406 -8.726562 2.695312 -9.578125 4.9375 -9.578125 C 6.125 -9.578125 7.015625 -9.304688 7.609375 -8.765625 C 8.203125 -8.222656 8.5 -7.4375 8.5 -6.40625 L 8.5 -2.359375 C 8.5 -1.898438 8.5625 -1.550781 8.6875 -1.3125 C 8.8125 -1.082031 9.046875 -0.96875 9.390625 -0.96875 C 9.535156 -0.96875 9.703125 -0.988281 9.890625 -1.03125 L 9.890625 -0.046875 C 9.503906 0.046875 9.101562 0.09375 8.6875 0.09375 C 8.113281 0.09375 7.691406 -0.0546875 7.421875 -0.359375 C 7.160156 -0.671875 7.015625 -1.148438 6.984375 -1.796875 L 6.921875 -1.796875 C 6.523438 -1.078125 6.0625 -0.566406 5.53125 -0.265625 C 5 0.0234375 4.351562 0.171875 3.59375 0.171875 Z M 3.953125 -1 C 4.523438 -1 5.035156 -1.128906 5.484375 -1.390625 C 5.929688 -1.648438 6.28125 -2.003906 6.53125 -2.453125 C 6.789062 -2.910156 6.921875 -3.378906 6.921875 -3.859375 L 6.921875 -4.640625 L 5.21875 -4.609375 C 4.476562 -4.597656 3.914062 -4.519531 3.53125 -4.375 C 3.15625 -4.238281 2.863281 -4.023438 2.65625 -3.734375 C 2.457031 -3.441406 2.359375 -3.0625 2.359375 -2.59375 C 2.359375 -2.082031 2.492188 -1.6875 2.765625 -1.40625 C 3.046875 -1.132812 3.441406 -1 3.953125 -1 Z M 3.953125 -1 "/></g></g></g><g fill="#011c50" fill-opacity="1"><g transform="translate(370.876122, 386.961701)"><g><path d="M 1.234375 0 L 1.234375 -7.21875 C 1.234375 -7.875 1.21875 -8.601562 1.1875 -9.40625 L 2.65625 -9.40625 C 2.707031 -8.332031 2.734375 -7.691406 2.734375 -7.484375 L 2.765625 -7.484375 C 3.015625 -8.285156 3.300781 -8.832031 3.625 -9.125 C 3.945312 -9.425781 4.40625 -9.578125 5 -9.578125 C 5.207031 -9.578125 5.414062 -9.546875 5.625 -9.484375 L 5.625 -8.0625 C 5.414062 -8.113281 5.140625 -8.140625 4.796875 -8.140625 C 4.148438 -8.140625 3.65625 -7.859375 3.3125 -7.296875 C 2.96875 -6.742188 2.796875 -5.945312 2.796875 -4.90625 L 2.796875 0 Z M 1.234375 0 "/></g></g></g><g fill="#011c50" fill-opacity="1"><g transform="translate(376.802843, 386.961701)"><g><path d="M 2.390625 -4.375 C 2.390625 -3.289062 2.613281 -2.457031 3.0625 -1.875 C 3.507812 -1.289062 4.160156 -1 5.015625 -1 C 5.703125 -1 6.25 -1.132812 6.65625 -1.40625 C 7.0625 -1.675781 7.335938 -2.019531 7.484375 -2.4375 L 8.859375 -2.046875 C 8.296875 -0.566406 7.015625 0.171875 5.015625 0.171875 C 3.628906 0.171875 2.570312 -0.238281 1.84375 -1.0625 C 1.113281 -1.894531 0.75 -3.128906 0.75 -4.765625 C 0.75 -6.316406 1.113281 -7.503906 1.84375 -8.328125 C 2.570312 -9.160156 3.613281 -9.578125 4.96875 -9.578125 C 7.726562 -9.578125 9.109375 -7.910156 9.109375 -4.578125 L 9.109375 -4.375 Z M 7.484375 -5.5625 C 7.398438 -6.5625 7.148438 -7.285156 6.734375 -7.734375 C 6.316406 -8.191406 5.71875 -8.421875 4.9375 -8.421875 C 4.175781 -8.421875 3.570312 -8.164062 3.125 -7.65625 C 2.6875 -7.15625 2.453125 -6.457031 2.421875 -5.5625 Z M 7.484375 -5.5625 "/></g></g></g><g fill="#011c50" fill-opacity="1"><g transform="translate(386.700994, 386.961701)"><g/></g></g><g fill="#011c50" fill-opacity="1"><g transform="translate(391.645728, 386.961701)"><g><path d="M 6.671875 0 L 6.671875 -5.96875 C 6.671875 -6.875 6.546875 -7.5 6.296875 -7.84375 C 6.046875 -8.195312 5.597656 -8.375 4.953125 -8.375 C 4.285156 -8.375 3.757812 -8.117188 3.375 -7.609375 C 2.988281 -7.097656 2.796875 -6.378906 2.796875 -5.453125 L 2.796875 0 L 1.234375 0 L 1.234375 -7.390625 C 1.234375 -8.484375 1.21875 -9.15625 1.1875 -9.40625 L 2.65625 -9.40625 C 2.664062 -9.375 2.671875 -9.296875 2.671875 -9.171875 C 2.679688 -9.046875 2.691406 -8.898438 2.703125 -8.734375 C 2.710938 -8.566406 2.722656 -8.253906 2.734375 -7.796875 L 2.75 -7.796875 C 3.09375 -8.460938 3.476562 -8.925781 3.90625 -9.1875 C 4.34375 -9.445312 4.875 -9.578125 5.5 -9.578125 C 6.207031 -9.578125 6.769531 -9.429688 7.1875 -9.140625 C 7.601562 -8.859375 7.894531 -8.410156 8.0625 -7.796875 L 8.078125 -7.796875 C 8.398438 -8.421875 8.789062 -8.875 9.25 -9.15625 C 9.71875 -9.4375 10.28125 -9.578125 10.9375 -9.578125 C 11.882812 -9.578125 12.570312 -9.316406 13 -8.796875 C 13.4375 -8.285156 13.65625 -7.441406 13.65625 -6.265625 L 13.65625 0 L 12.109375 0 L 12.109375 -5.96875 C 12.109375 -6.875 11.984375 -7.5 11.734375 -7.84375 C 11.484375 -8.195312 11.035156 -8.375 10.390625 -8.375 C 9.703125 -8.375 9.164062 -8.117188 8.78125 -7.609375 C 8.40625 -7.097656 8.21875 -6.378906 8.21875 -5.453125 L 8.21875 0 Z M 6.671875 0 "/></g></g></g><g fill="#011c50" fill-opacity="1"><g transform="translate(406.471225, 386.961701)"><g><path d="M 9.15625 -4.703125 C 9.15625 -3.054688 8.789062 -1.832031 8.0625 -1.03125 C 7.34375 -0.226562 6.289062 0.171875 4.90625 0.171875 C 3.53125 0.171875 2.492188 -0.242188 1.796875 -1.078125 C 1.097656 -1.921875 0.75 -3.128906 0.75 -4.703125 C 0.75 -7.953125 2.15625 -9.578125 4.96875 -9.578125 C 6.394531 -9.578125 7.445312 -9.179688 8.125 -8.390625 C 8.8125 -7.597656 9.15625 -6.367188 9.15625 -4.703125 Z M 7.515625 -4.703125 C 7.515625 -6.003906 7.320312 -6.945312 6.9375 -7.53125 C 6.550781 -8.125 5.898438 -8.421875 4.984375 -8.421875 C 4.066406 -8.421875 3.40625 -8.117188 3 -7.515625 C 2.59375 -6.921875 2.390625 -5.984375 2.390625 -4.703125 C 2.390625 -3.460938 2.585938 -2.53125 2.984375 -1.90625 C 3.390625 -1.289062 4.023438 -0.984375 4.890625 -0.984375 C 5.828125 -0.984375 6.5 -1.285156 6.90625 -1.890625 C 7.3125 -2.492188 7.515625 -3.429688 7.515625 -4.703125 Z M 7.515625 -4.703125 "/></g></g></g><g fill="#011c50" fill-opacity="1"><g transform="translate(416.369377, 386.961701)"><g><path d="M 6.671875 0 L 6.671875 -5.96875 C 6.671875 -6.875 6.546875 -7.5 6.296875 -7.84375 C 6.046875 -8.195312 5.597656 -8.375 4.953125 -8.375 C 4.285156 -8.375 3.757812 -8.117188 3.375 -7.609375 C 2.988281 -7.097656 2.796875 -6.378906 2.796875 -5.453125 L 2.796875 0 L 1.234375 0 L 1.234375 -7.390625 C 1.234375 -8.484375 1.21875 -9.15625 1.1875 -9.40625 L 2.65625 -9.40625 C 2.664062 -9.375 2.671875 -9.296875 2.671875 -9.171875 C 2.679688 -9.046875 2.691406 -8.898438 2.703125 -8.734375 C 2.710938 -8.566406 2.722656 -8.253906 2.734375 -7.796875 L 2.75 -7.796875 C 3.09375 -8.460938 3.476562 -8.925781 3.90625 -9.1875 C 4.34375 -9.445312 4.875 -9.578125 5.5 -9.578125 C 6.207031 -9.578125 6.769531 -9.429688 7.1875 -9.140625 C 7.601562 -8.859375 7.894531 -8.410156 8.0625 -7.796875 L 8.078125 -7.796875 C 8.398438 -8.421875 8.789062 -8.875 9.25 -9.15625 C 9.71875 -9.4375 10.28125 -9.578125 10.9375 -9.578125 C 11.882812 -9.578125 12.570312 -9.316406 13 -8.796875 C 13.4375 -8.285156 13.65625 -7.441406 13.65625 -6.265625 L 13.65625 0 L 12.109375 0 L 12.109375 -5.96875 C 12.109375 -6.875 11.984375 -7.5 11.734375 -7.84375 C 11.484375 -8.195312 11.035156 -8.375 10.390625 -8.375 C 9.703125 -8.375 9.164062 -8.117188 8.78125 -7.609375 C 8.40625 -7.097656 8.21875 -6.378906 8.21875 -5.453125 L 8.21875 0 Z M 6.671875 0 "/></g></g></g><g fill="#011c50" fill-opacity="1"><g transform="translate(431.194874, 386.961701)"><g><path d="M 2.390625 -4.375 C 2.390625 -3.289062 2.613281 -2.457031 3.0625 -1.875 C 3.507812 -1.289062 4.160156 -1 5.015625 -1 C 5.703125 -1 6.25 -1.132812 6.65625 -1.40625 C 7.0625 -1.675781 7.335938 -2.019531 7.484375 -2.4375 L 8.859375 -2.046875 C 8.296875 -0.566406 7.015625 0.171875 5.015625 0.171875 C 3.628906 0.171875 2.570312 -0.238281 1.84375 -1.0625 C 1.113281 -1.894531 0.75 -3.128906 0.75 -4.765625 C 0.75 -6.316406 1.113281 -7.503906 1.84375 -8.328125 C 2.570312 -9.160156 3.613281 -9.578125 4.96875 -9.578125 C 7.726562 -9.578125 9.109375 -7.910156 9.109375 -4.578125 L 9.109375 -4.375 Z M 7.484375 -5.5625 C 7.398438 -6.5625 7.148438 -7.285156 6.734375 -7.734375 C 6.316406 -8.191406 5.71875 -8.421875 4.9375 -8.421875 C 4.175781 -8.421875 3.570312 -8.164062 3.125 -7.65625 C 2.6875 -7.15625 2.453125 -6.457031 2.421875 -5.5625 Z M 7.484375 -5.5625 "/></g></g></g><g fill="#011c50" fill-opacity="1"><g transform="translate(441.093025, 386.961701)"><g><path d="M 7.171875 0 L 7.171875 -5.96875 C 7.171875 -6.582031 7.109375 -7.0625 6.984375 -7.40625 C 6.859375 -7.75 6.660156 -7.992188 6.390625 -8.140625 C 6.128906 -8.296875 5.742188 -8.375 5.234375 -8.375 C 4.484375 -8.375 3.890625 -8.113281 3.453125 -7.59375 C 3.015625 -7.082031 2.796875 -6.367188 2.796875 -5.453125 L 2.796875 0 L 1.234375 0 L 1.234375 -7.390625 C 1.234375 -8.484375 1.21875 -9.15625 1.1875 -9.40625 L 2.65625 -9.40625 C 2.664062 -9.375 2.671875 -9.296875 2.671875 -9.171875 C 2.679688 -9.046875 2.691406 -8.898438 2.703125 -8.734375 C 2.710938 -8.566406 2.722656 -8.253906 2.734375 -7.796875 L 2.75 -7.796875 C 3.113281 -8.441406 3.53125 -8.898438 4 -9.171875 C 4.46875 -9.441406 5.054688 -9.578125 5.765625 -9.578125 C 6.796875 -9.578125 7.546875 -9.316406 8.015625 -8.796875 C 8.492188 -8.285156 8.734375 -7.441406 8.734375 -6.265625 L 8.734375 0 Z M 7.171875 0 "/></g></g></g><g fill="#011c50" fill-opacity="1"><g transform="translate(450.991177, 386.961701)"><g><path d="M 4.8125 -0.0625 C 4.300781 0.0703125 3.773438 0.140625 3.234375 0.140625 C 1.984375 0.140625 1.359375 -0.566406 1.359375 -1.984375 L 1.359375 -8.265625 L 0.265625 -8.265625 L 0.265625 -9.40625 L 1.421875 -9.40625 L 1.875 -11.5 L 2.921875 -11.5 L 2.921875 -9.40625 L 4.65625 -9.40625 L 4.65625 -8.265625 L 2.921875 -8.265625 L 2.921875 -2.328125 C 2.921875 -1.878906 2.992188 -1.5625 3.140625 -1.375 C 3.285156 -1.195312 3.539062 -1.109375 3.90625 -1.109375 C 4.113281 -1.109375 4.414062 -1.144531 4.8125 -1.21875 Z M 4.8125 -0.0625 "/></g></g></g><g fill="#011c50" fill-opacity="1"><g transform="translate(455.935911, 386.961701)"><g/></g></g><g fill="#011c50" fill-opacity="1"><g transform="translate(460.880645, 386.961701)"><g><path d="M 2.390625 -4.75 C 2.390625 -3.5 2.585938 -2.570312 2.984375 -1.96875 C 3.378906 -1.363281 3.972656 -1.0625 4.765625 -1.0625 C 5.316406 -1.0625 5.78125 -1.210938 6.15625 -1.515625 C 6.53125 -1.816406 6.757812 -2.28125 6.84375 -2.90625 L 8.421875 -2.796875 C 8.304688 -1.890625 7.921875 -1.164062 7.265625 -0.625 C 6.617188 -0.09375 5.800781 0.171875 4.8125 0.171875 C 3.488281 0.171875 2.476562 -0.238281 1.78125 -1.0625 C 1.09375 -1.894531 0.75 -3.109375 0.75 -4.703125 C 0.75 -6.285156 1.097656 -7.492188 1.796875 -8.328125 C 2.492188 -9.160156 3.488281 -9.578125 4.78125 -9.578125 C 5.75 -9.578125 6.550781 -9.328125 7.1875 -8.828125 C 7.820312 -8.328125 8.21875 -7.640625 8.375 -6.765625 L 6.765625 -6.640625 C 6.679688 -7.171875 6.472656 -7.585938 6.140625 -7.890625 C 5.816406 -8.191406 5.351562 -8.34375 4.75 -8.34375 C 3.914062 -8.34375 3.3125 -8.066406 2.9375 -7.515625 C 2.570312 -6.972656 2.390625 -6.050781 2.390625 -4.75 Z M 2.390625 -4.75 "/></g></g></g><g fill="#011c50" fill-opacity="1"><g transform="translate(469.779421, 386.961701)"><g><path d="M 3.59375 0.171875 C 2.65625 0.171875 1.945312 -0.078125 1.46875 -0.578125 C 0.988281 -1.078125 0.75 -1.757812 0.75 -2.625 C 0.75 -3.59375 1.066406 -4.335938 1.703125 -4.859375 C 2.347656 -5.378906 3.382812 -5.660156 4.8125 -5.703125 L 6.921875 -5.734375 L 6.921875 -6.25 C 6.921875 -7.007812 6.757812 -7.554688 6.4375 -7.890625 C 6.113281 -8.222656 5.601562 -8.390625 4.90625 -8.390625 C 4.207031 -8.390625 3.695312 -8.269531 3.375 -8.03125 C 3.0625 -7.789062 2.875 -7.410156 2.8125 -6.890625 L 1.171875 -7.03125 C 1.441406 -8.726562 2.695312 -9.578125 4.9375 -9.578125 C 6.125 -9.578125 7.015625 -9.304688 7.609375 -8.765625 C 8.203125 -8.222656 8.5 -7.4375 8.5 -6.40625 L 8.5 -2.359375 C 8.5 -1.898438 8.5625 -1.550781 8.6875 -1.3125 C 8.8125 -1.082031 9.046875 -0.96875 9.390625 -0.96875 C 9.535156 -0.96875 9.703125 -0.988281 9.890625 -1.03125 L 9.890625 -0.046875 C 9.503906 0.046875 9.101562 0.09375 8.6875 0.09375 C 8.113281 0.09375 7.691406 -0.0546875 7.421875 -0.359375 C 7.160156 -0.671875 7.015625 -1.148438 6.984375 -1.796875 L 6.921875 -1.796875 C 6.523438 -1.078125 6.0625 -0.566406 5.53125 -0.265625 C 5 0.0234375 4.351562 0.171875 3.59375 0.171875 Z M 3.953125 -1 C 4.523438 -1 5.035156 -1.128906 5.484375 -1.390625 C 5.929688 -1.648438 6.28125 -2.003906 6.53125 -2.453125 C 6.789062 -2.910156 6.921875 -3.378906 6.921875 -3.859375 L 6.921875 -4.640625 L 5.21875 -4.609375 C 4.476562 -4.597656 3.914062 -4.519531 3.53125 -4.375 C 3.15625 -4.238281 2.863281 -4.023438 2.65625 -3.734375 C 2.457031 -3.441406 2.359375 -3.0625 2.359375 -2.59375 C 2.359375 -2.082031 2.492188 -1.6875 2.765625 -1.40625 C 3.046875 -1.132812 3.441406 -1 3.953125 -1 Z M 3.953125 -1 "/></g></g></g><g fill="#011c50" fill-opacity="1"><g transform="translate(479.677572, 386.961701)"><g/></g></g><g fill="#011c50" fill-opacity="1"><g transform="translate(484.622306, 386.961701)"><g><path d="M 9.15625 -4.75 C 9.15625 -1.46875 8 0.171875 5.6875 0.171875 C 4.238281 0.171875 3.265625 -0.367188 2.765625 -1.453125 L 2.734375 -1.453125 C 2.753906 -1.410156 2.765625 -0.921875 2.765625 0.015625 L 2.765625 3.6875 L 1.203125 3.6875 L 1.203125 -7.484375 C 1.203125 -8.453125 1.179688 -9.09375 1.140625 -9.40625 L 2.65625 -9.40625 C 2.664062 -9.382812 2.675781 -9.300781 2.6875 -9.15625 C 2.695312 -9.007812 2.707031 -8.789062 2.71875 -8.5 C 2.738281 -8.207031 2.75 -8.003906 2.75 -7.890625 L 2.78125 -7.890625 C 3.0625 -8.472656 3.429688 -8.894531 3.890625 -9.15625 C 4.347656 -9.425781 4.945312 -9.5625 5.6875 -9.5625 C 6.851562 -9.5625 7.722656 -9.171875 8.296875 -8.390625 C 8.867188 -7.617188 9.15625 -6.40625 9.15625 -4.75 Z M 7.515625 -4.703125 C 7.515625 -6.015625 7.335938 -6.953125 6.984375 -7.515625 C 6.628906 -8.078125 6.066406 -8.359375 5.296875 -8.359375 C 4.671875 -8.359375 4.179688 -8.226562 3.828125 -7.96875 C 3.484375 -7.707031 3.21875 -7.300781 3.03125 -6.75 C 2.851562 -6.195312 2.765625 -5.476562 2.765625 -4.59375 C 2.765625 -3.351562 2.957031 -2.441406 3.34375 -1.859375 C 3.738281 -1.273438 4.382812 -0.984375 5.28125 -0.984375 C 6.050781 -0.984375 6.613281 -1.265625 6.96875 -1.828125 C 7.332031 -2.398438 7.515625 -3.359375 7.515625 -4.703125 Z M 7.515625 -4.703125 "/></g></g></g><g fill="#011c50" fill-opacity="1"><g transform="translate(494.520458, 386.961701)"><g><path d="M 2.390625 -4.375 C 2.390625 -3.289062 2.613281 -2.457031 3.0625 -1.875 C 3.507812 -1.289062 4.160156 -1 5.015625 -1 C 5.703125 -1 6.25 -1.132812 6.65625 -1.40625 C 7.0625 -1.675781 7.335938 -2.019531 7.484375 -2.4375 L 8.859375 -2.046875 C 8.296875 -0.566406 7.015625 0.171875 5.015625 0.171875 C 3.628906 0.171875 2.570312 -0.238281 1.84375 -1.0625 C 1.113281 -1.894531 0.75 -3.128906 0.75 -4.765625 C 0.75 -6.316406 1.113281 -7.503906 1.84375 -8.328125 C 2.570312 -9.160156 3.613281 -9.578125 4.96875 -9.578125 C 7.726562 -9.578125 9.109375 -7.910156 9.109375 -4.578125 L 9.109375 -4.375 Z M 7.484375 -5.5625 C 7.398438 -6.5625 7.148438 -7.285156 6.734375 -7.734375 C 6.316406 -8.191406 5.71875 -8.421875 4.9375 -8.421875 C 4.175781 -8.421875 3.570312 -8.164062 3.125 -7.65625 C 2.6875 -7.15625 2.453125 -6.457031 2.421875 -5.5625 Z M 7.484375 -5.5625 "/></g></g></g><g fill="#011c50" fill-opacity="1"><g transform="translate(504.418609, 386.961701)"><g/></g></g><g fill="#011c50" fill-opacity="1"><g transform="translate(509.363343, 386.961701)"><g><path d="M 9.15625 -4.703125 C 9.15625 -3.054688 8.789062 -1.832031 8.0625 -1.03125 C 7.34375 -0.226562 6.289062 0.171875 4.90625 0.171875 C 3.53125 0.171875 2.492188 -0.242188 1.796875 -1.078125 C 1.097656 -1.921875 0.75 -3.128906 0.75 -4.703125 C 0.75 -7.953125 2.15625 -9.578125 4.96875 -9.578125 C 6.394531 -9.578125 7.445312 -9.179688 8.125 -8.390625 C 8.8125 -7.597656 9.15625 -6.367188 9.15625 -4.703125 Z M 7.515625 -4.703125 C 7.515625 -6.003906 7.320312 -6.945312 6.9375 -7.53125 C 6.550781 -8.125 5.898438 -8.421875 4.984375 -8.421875 C 4.066406 -8.421875 3.40625 -8.117188 3 -7.515625 C 2.59375 -6.921875 2.390625 -5.984375 2.390625 -4.703125 C 2.390625 -3.460938 2.585938 -2.53125 2.984375 -1.90625 C 3.390625 -1.289062 4.023438 -0.984375 4.890625 -0.984375 C 5.828125 -0.984375 6.5 -1.285156 6.90625 -1.890625 C 7.3125 -2.492188 7.515625 -3.429688 7.515625 -4.703125 Z M 7.515625 -4.703125 "/></g></g></g><g fill="#011c50" fill-opacity="1"><g transform="translate(519.261495, 386.961701)"><g/></g></g><g fill="#011c50" fill-opacity="1"><g transform="translate(524.206229, 386.961701)"><g><path d="M 8.25 -2.59375 C 8.25 -1.707031 7.914062 -1.023438 7.25 -0.546875 C 6.582031 -0.0664062 5.644531 0.171875 4.4375 0.171875 C 3.269531 0.171875 2.367188 -0.0195312 1.734375 -0.40625 C 1.097656 -0.789062 0.6875 -1.390625 0.5 -2.203125 L 1.875 -2.484375 C 2.007812 -1.972656 2.285156 -1.597656 2.703125 -1.359375 C 3.117188 -1.128906 3.695312 -1.015625 4.4375 -1.015625 C 5.226562 -1.015625 5.804688 -1.132812 6.171875 -1.375 C 6.546875 -1.625 6.734375 -1.992188 6.734375 -2.484375 C 6.734375 -2.847656 6.601562 -3.144531 6.34375 -3.375 C 6.09375 -3.613281 5.6875 -3.804688 5.125 -3.953125 L 4 -4.25 C 3.101562 -4.476562 2.460938 -4.703125 2.078125 -4.921875 C 1.703125 -5.148438 1.40625 -5.421875 1.1875 -5.734375 C 0.976562 -6.054688 0.875 -6.453125 0.875 -6.921875 C 0.875 -7.773438 1.175781 -8.425781 1.78125 -8.875 C 2.394531 -9.320312 3.285156 -9.546875 4.453125 -9.546875 C 5.492188 -9.546875 6.316406 -9.363281 6.921875 -9 C 7.535156 -8.632812 7.925781 -8.050781 8.09375 -7.25 L 6.6875 -7.078125 C 6.59375 -7.492188 6.351562 -7.8125 5.96875 -8.03125 C 5.59375 -8.257812 5.085938 -8.375 4.453125 -8.375 C 3.742188 -8.375 3.222656 -8.265625 2.890625 -8.046875 C 2.554688 -7.828125 2.390625 -7.503906 2.390625 -7.078125 C 2.390625 -6.804688 2.457031 -6.582031 2.59375 -6.40625 C 2.738281 -6.238281 2.945312 -6.09375 3.21875 -5.96875 C 3.488281 -5.84375 4.0625 -5.675781 4.9375 -5.46875 C 5.757812 -5.257812 6.351562 -5.066406 6.71875 -4.890625 C 7.082031 -4.710938 7.367188 -4.515625 7.578125 -4.296875 C 7.796875 -4.085938 7.960938 -3.84375 8.078125 -3.5625 C 8.191406 -3.28125 8.25 -2.957031 8.25 -2.59375 Z M 5.28125 1.671875 C 5.28125 2.179688 5.21875 2.585938 5.09375 2.890625 C 4.96875 3.203125 4.789062 3.492188 4.5625 3.765625 L 3.546875 3.765625 C 3.804688 3.492188 4.003906 3.234375 4.140625 2.984375 C 4.285156 2.734375 4.359375 2.472656 4.359375 2.203125 L 3.59375 2.203125 L 3.59375 0.859375 L 5.28125 0.859375 Z M 5.28125 1.671875 "/></g></g></g><g fill="#011c50" fill-opacity="1"><g transform="translate(533.105005, 386.961701)"><g><path d="M 3.59375 0.171875 C 2.65625 0.171875 1.945312 -0.078125 1.46875 -0.578125 C 0.988281 -1.078125 0.75 -1.757812 0.75 -2.625 C 0.75 -3.59375 1.066406 -4.335938 1.703125 -4.859375 C 2.347656 -5.378906 3.382812 -5.660156 4.8125 -5.703125 L 6.921875 -5.734375 L 6.921875 -6.25 C 6.921875 -7.007812 6.757812 -7.554688 6.4375 -7.890625 C 6.113281 -8.222656 5.601562 -8.390625 4.90625 -8.390625 C 4.207031 -8.390625 3.695312 -8.269531 3.375 -8.03125 C 3.0625 -7.789062 2.875 -7.410156 2.8125 -6.890625 L 1.171875 -7.03125 C 1.441406 -8.726562 2.695312 -9.578125 4.9375 -9.578125 C 6.125 -9.578125 7.015625 -9.304688 7.609375 -8.765625 C 8.203125 -8.222656 8.5 -7.4375 8.5 -6.40625 L 8.5 -2.359375 C 8.5 -1.898438 8.5625 -1.550781 8.6875 -1.3125 C 8.8125 -1.082031 9.046875 -0.96875 9.390625 -0.96875 C 9.535156 -0.96875 9.703125 -0.988281 9.890625 -1.03125 L 9.890625 -0.046875 C 9.503906 0.046875 9.101562 0.09375 8.6875 0.09375 C 8.113281 0.09375 7.691406 -0.0546875 7.421875 -0.359375 C 7.160156 -0.671875 7.015625 -1.148438 6.984375 -1.796875 L 6.921875 -1.796875 C 6.523438 -1.078125 6.0625 -0.566406 5.53125 -0.265625 C 5 0.0234375 4.351562 0.171875 3.59375 0.171875 Z M 3.953125 -1 C 4.523438 -1 5.035156 -1.128906 5.484375 -1.390625 C 5.929688 -1.648438 6.28125 -2.003906 6.53125 -2.453125 C 6.789062 -2.910156 6.921875 -3.378906 6.921875 -3.859375 L 6.921875 -4.640625 L 5.21875 -4.609375 C 4.476562 -4.597656 3.914062 -4.519531 3.53125 -4.375 C 3.15625 -4.238281 2.863281 -4.023438 2.65625 -3.734375 C 2.457031 -3.441406 2.359375 -3.0625 2.359375 -2.59375 C 2.359375 -2.082031 2.492188 -1.6875 2.765625 -1.40625 C 3.046875 -1.132812 3.441406 -1 3.953125 -1 Z M 3.953125 -1 "/></g></g></g><g fill="#011c50" fill-opacity="1"><g transform="translate(543.003156, 386.961701)"><g><path d="M 7.171875 0 L 7.171875 -5.96875 C 7.171875 -6.582031 7.109375 -7.0625 6.984375 -7.40625 C 6.859375 -7.75 6.660156 -7.992188 6.390625 -8.140625 C 6.128906 -8.296875 5.742188 -8.375 5.234375 -8.375 C 4.484375 -8.375 3.890625 -8.113281 3.453125 -7.59375 C 3.015625 -7.082031 2.796875 -6.367188 2.796875 -5.453125 L 2.796875 0 L 1.234375 0 L 1.234375 -7.390625 C 1.234375 -8.484375 1.21875 -9.15625 1.1875 -9.40625 L 2.65625 -9.40625 C 2.664062 -9.375 2.671875 -9.296875 2.671875 -9.171875 C 2.679688 -9.046875 2.691406 -8.898438 2.703125 -8.734375 C 2.710938 -8.566406 2.722656 -8.253906 2.734375 -7.796875 L 2.75 -7.796875 C 3.113281 -8.441406 3.53125 -8.898438 4 -9.171875 C 4.46875 -9.441406 5.054688 -9.578125 5.765625 -9.578125 C 6.796875 -9.578125 7.546875 -9.316406 8.015625 -8.796875 C 8.492188 -8.285156 8.734375 -7.441406 8.734375 -6.265625 L 8.734375 0 Z M 7.171875 0 "/></g></g></g><g fill="#011c50" fill-opacity="1"><g transform="translate(552.901308, 386.961701)"><g><path d="M 8.25 -2.59375 C 8.25 -1.707031 7.914062 -1.023438 7.25 -0.546875 C 6.582031 -0.0664062 5.644531 0.171875 4.4375 0.171875 C 3.269531 0.171875 2.367188 -0.0195312 1.734375 -0.40625 C 1.097656 -0.789062 0.6875 -1.390625 0.5 -2.203125 L 1.875 -2.484375 C 2.007812 -1.972656 2.285156 -1.597656 2.703125 -1.359375 C 3.117188 -1.128906 3.695312 -1.015625 4.4375 -1.015625 C 5.226562 -1.015625 5.804688 -1.132812 6.171875 -1.375 C 6.546875 -1.625 6.734375 -1.992188 6.734375 -2.484375 C 6.734375 -2.847656 6.601562 -3.144531 6.34375 -3.375 C 6.09375 -3.613281 5.6875 -3.804688 5.125 -3.953125 L 4 -4.25 C 3.101562 -4.476562 2.460938 -4.703125 2.078125 -4.921875 C 1.703125 -5.148438 1.40625 -5.421875 1.1875 -5.734375 C 0.976562 -6.054688 0.875 -6.453125 0.875 -6.921875 C 0.875 -7.773438 1.175781 -8.425781 1.78125 -8.875 C 2.394531 -9.320312 3.285156 -9.546875 4.453125 -9.546875 C 5.492188 -9.546875 6.316406 -9.363281 6.921875 -9 C 7.535156 -8.632812 7.925781 -8.050781 8.09375 -7.25 L 6.6875 -7.078125 C 6.59375 -7.492188 6.351562 -7.8125 5.96875 -8.03125 C 5.59375 -8.257812 5.085938 -8.375 4.453125 -8.375 C 3.742188 -8.375 3.222656 -8.265625 2.890625 -8.046875 C 2.554688 -7.828125 2.390625 -7.503906 2.390625 -7.078125 C 2.390625 -6.804688 2.457031 -6.582031 2.59375 -6.40625 C 2.738281 -6.238281 2.945312 -6.09375 3.21875 -5.96875 C 3.488281 -5.84375 4.0625 -5.675781 4.9375 -5.46875 C 5.757812 -5.257812 6.351562 -5.066406 6.71875 -4.890625 C 7.082031 -4.710938 7.367188 -4.515625 7.578125 -4.296875 C 7.796875 -4.085938 7.960938 -3.84375 8.078125 -3.5625 C 8.191406 -3.28125 8.25 -2.957031 8.25 -2.59375 Z M 8.25 -2.59375 "/></g></g></g><g fill="#011c50" fill-opacity="1"><g transform="translate(561.800084, 386.961701)"><g><path d="M 3.59375 0.171875 C 2.65625 0.171875 1.945312 -0.078125 1.46875 -0.578125 C 0.988281 -1.078125 0.75 -1.757812 0.75 -2.625 C 0.75 -3.59375 1.066406 -4.335938 1.703125 -4.859375 C 2.347656 -5.378906 3.382812 -5.660156 4.8125 -5.703125 L 6.921875 -5.734375 L 6.921875 -6.25 C 6.921875 -7.007812 6.757812 -7.554688 6.4375 -7.890625 C 6.113281 -8.222656 5.601562 -8.390625 4.90625 -8.390625 C 4.207031 -8.390625 3.695312 -8.269531 3.375 -8.03125 C 3.0625 -7.789062 2.875 -7.410156 2.8125 -6.890625 L 1.171875 -7.03125 C 1.441406 -8.726562 2.695312 -9.578125 4.9375 -9.578125 C 6.125 -9.578125 7.015625 -9.304688 7.609375 -8.765625 C 8.203125 -8.222656 8.5 -7.4375 8.5 -6.40625 L 8.5 -2.359375 C 8.5 -1.898438 8.5625 -1.550781 8.6875 -1.3125 C 8.8125 -1.082031 9.046875 -0.96875 9.390625 -0.96875 C 9.535156 -0.96875 9.703125 -0.988281 9.890625 -1.03125 L 9.890625 -0.046875 C 9.503906 0.046875 9.101562 0.09375 8.6875 0.09375 C 8.113281 0.09375 7.691406 -0.0546875 7.421875 -0.359375 C 7.160156 -0.671875 7.015625 -1.148438 6.984375 -1.796875 L 6.921875 -1.796875 C 6.523438 -1.078125 6.0625 -0.566406 5.53125 -0.265625 C 5 0.0234375 4.351562 0.171875 3.59375 0.171875 Z M 3.953125 -1 C 4.523438 -1 5.035156 -1.128906 5.484375 -1.390625 C 5.929688 -1.648438 6.28125 -2.003906 6.53125 -2.453125 C 6.789062 -2.910156 6.921875 -3.378906 6.921875 -3.859375 L 6.921875 -4.640625 L 5.21875 -4.609375 C 4.476562 -4.597656 3.914062 -4.519531 3.53125 -4.375 C 3.15625 -4.238281 2.863281 -4.023438 2.65625 -3.734375 C 2.457031 -3.441406 2.359375 -3.0625 2.359375 -2.59375 C 2.359375 -2.082031 2.492188 -1.6875 2.765625 -1.40625 C 3.046875 -1.132812 3.441406 -1 3.953125 -1 Z M 4.859375 -10.4375 C 4.097656 -10.4375 3.453125 -10.679688 2.921875 -11.171875 C 2.398438 -11.660156 2.085938 -12.3125 1.984375 -13.125 L 3 -13.125 C 3.15625 -12.238281 3.78125 -11.796875 4.875 -11.796875 C 5.957031 -11.796875 6.582031 -12.238281 6.75 -13.125 L 7.765625 -13.125 C 7.640625 -12.300781 7.316406 -11.644531 6.796875 -11.15625 C 6.285156 -10.675781 5.640625 -10.4375 4.859375 -10.4375 Z M 4.859375 -10.4375 "/></g></g></g><g fill="#011c50" fill-opacity="1"><g transform="translate(571.698235, 386.961701)"><g><path d="M 5.375 -8.390625 L 4.140625 -8.390625 L 3.96875 -12.25 L 5.5625 -12.25 Z M 2.15625 -8.390625 L 0.9375 -8.390625 L 0.75 -12.25 L 2.359375 -12.25 Z M 2.15625 -8.390625 "/></g></g></g><g clip-path="url(#2a62d66495)"><g clip-path="url(#c1086be397)"><path fill="#5271ff" d="M 678.910156 58.910156 L 1118.972656 71.8125 L 1116.332031 161.773438 L 676.273438 148.871094 Z M 678.910156 58.910156 " fill-opacity="1" fill-rule="nonzero"/></g></g><g clip-path="url(#df1c347698)"><path fill="#ffbd59" d="M 671.5625 290.535156 L 1123.8125 290.535156 L 1123.8125 380.535156 L 671.5625 380.535156 Z M 671.5625 290.535156 " fill-opacity="1" fill-rule="nonzero"/></g><g clip-path="url(#da570cf58a)"><g clip-path="url(#935e672ff5)"><path fill="#fa7d9d" d="M 680.546875 165.425781 L 1134.144531 153.710938 L 1137.535156 284.917969 L 683.933594 296.632812 Z M 680.546875 165.425781 " fill-opacity="1" fill-rule="nonzero"/></g></g><g fill="#ffffff" fill-opacity="1"><g transform="translate(846.261105, 118.103728)"><g><path d="M 8.796875 -2.078125 C 10.753906 -2.015625 12.144531 -2.957031 12.96875 -4.90625 L 15.765625 -3.75 C 15.109375 -2.269531 14.179688 -1.179688 12.984375 -0.484375 C 11.785156 0.203125 10.367188 0.519531 8.734375 0.46875 C 6.242188 0.394531 4.335938 -0.363281 3.015625 -1.8125 C 1.703125 -3.257812 1.082031 -5.25 1.15625 -7.78125 C 1.226562 -10.320312 1.9375 -12.253906 3.28125 -13.578125 C 4.632812 -14.898438 6.554688 -15.523438 9.046875 -15.453125 C 10.859375 -15.398438 12.328125 -14.992188 13.453125 -14.234375 C 14.578125 -13.472656 15.347656 -12.378906 15.765625 -10.953125 L 12.890625 -10.25 C 12.671875 -11.03125 12.210938 -11.660156 11.515625 -12.140625 C 10.828125 -12.617188 10.003906 -12.875 9.046875 -12.90625 C 7.578125 -12.945312 6.453125 -12.523438 5.671875 -11.640625 C 4.890625 -10.753906 4.472656 -9.4375 4.421875 -7.6875 C 4.367188 -5.90625 4.71875 -4.535156 5.46875 -3.578125 C 6.21875 -2.617188 7.328125 -2.117188 8.796875 -2.078125 Z M 8.796875 -2.078125 "/></g></g></g><g fill="#ffffff" fill-opacity="1"><g transform="translate(863.081815, 118.597006)"><g><path d="M 4.828125 -11.765625 L 4.640625 -5.09375 C 4.578125 -3.007812 5.25 -1.945312 6.65625 -1.90625 C 7.40625 -1.882812 8.015625 -2.1875 8.484375 -2.8125 C 8.960938 -3.4375 9.210938 -4.25 9.234375 -5.25 L 9.421875 -11.625 L 12.515625 -11.53125 L 12.25 -2.296875 C 12.21875 -1.285156 12.222656 -0.398438 12.265625 0.359375 L 9.3125 0.265625 C 9.257812 -0.785156 9.238281 -1.570312 9.25 -2.09375 L 9.1875 -2.09375 C 8.757812 -1.207031 8.222656 -0.566406 7.578125 -0.171875 C 6.929688 0.210938 6.175781 0.394531 5.3125 0.375 C 4.050781 0.332031 3.09375 -0.078125 2.4375 -0.859375 C 1.78125 -1.648438 1.472656 -2.796875 1.515625 -4.296875 L 1.734375 -11.84375 Z M 4.828125 -11.765625 "/></g></g></g><g fill="#ffffff" fill-opacity="1"><g transform="translate(877.399591, 119.016884)"><g><path d="M 1.578125 0.046875 L 2.0625 -16.25 L 5.140625 -16.15625 L 4.65625 0.140625 Z M 1.578125 0.046875 "/></g></g></g><g fill="#ffffff" fill-opacity="1"><g transform="translate(884.23052, 119.217205)"><g><path d="M 4.609375 0.34375 C 3.703125 0.3125 3.007812 0.0390625 2.53125 -0.46875 C 2.050781 -0.976562 1.828125 -1.738281 1.859375 -2.75 L 2.0625 -9.75 L 0.5625 -9.78125 L 0.625 -11.875 L 2.28125 -11.828125 L 3.34375 -14.59375 L 5.265625 -14.53125 L 5.171875 -11.75 L 7.4375 -11.6875 L 7.375 -9.59375 L 5.109375 -9.65625 L 4.9375 -3.484375 C 4.914062 -2.898438 5.015625 -2.46875 5.234375 -2.1875 C 5.453125 -1.914062 5.789062 -1.769531 6.25 -1.75 C 6.488281 -1.75 6.832031 -1.789062 7.28125 -1.875 L 7.21875 0.046875 C 6.457031 0.265625 5.585938 0.363281 4.609375 0.34375 Z M 4.609375 0.34375 "/></g></g></g><g fill="#ffffff" fill-opacity="1"><g transform="translate(892.301935, 119.453905)"><g><path d="M 4.828125 -11.765625 L 4.640625 -5.09375 C 4.578125 -3.007812 5.25 -1.945312 6.65625 -1.90625 C 7.40625 -1.882812 8.015625 -2.1875 8.484375 -2.8125 C 8.960938 -3.4375 9.210938 -4.25 9.234375 -5.25 L 9.421875 -11.625 L 12.515625 -11.53125 L 12.25 -2.296875 C 12.21875 -1.285156 12.222656 -0.398438 12.265625 0.359375 L 9.3125 0.265625 C 9.257812 -0.785156 9.238281 -1.570312 9.25 -2.09375 L 9.1875 -2.09375 C 8.757812 -1.207031 8.222656 -0.566406 7.578125 -0.171875 C 6.929688 0.210938 6.175781 0.394531 5.3125 0.375 C 4.050781 0.332031 3.09375 -0.078125 2.4375 -0.859375 C 1.78125 -1.648438 1.472656 -2.796875 1.515625 -4.296875 L 1.734375 -11.84375 Z M 4.828125 -11.765625 "/></g></g></g><g fill="#ffffff" fill-opacity="1"><g transform="translate(906.619711, 119.873783)"><g><path d="M 1.578125 0.046875 L 1.84375 -9.046875 C 1.863281 -9.703125 1.867188 -10.242188 1.859375 -10.671875 C 1.847656 -11.109375 1.835938 -11.5 1.828125 -11.84375 L 4.765625 -11.765625 C 4.785156 -11.628906 4.804688 -11.222656 4.828125 -10.546875 C 4.847656 -9.867188 4.859375 -9.421875 4.859375 -9.203125 L 4.890625 -9.203125 C 5.210938 -10.046875 5.492188 -10.628906 5.734375 -10.953125 C 5.984375 -11.285156 6.269531 -11.53125 6.59375 -11.6875 C 6.925781 -11.84375 7.332031 -11.914062 7.8125 -11.90625 C 8.207031 -11.894531 8.523438 -11.828125 8.765625 -11.703125 L 8.703125 -9.125 C 8.203125 -9.25 7.757812 -9.316406 7.375 -9.328125 C 6.601562 -9.347656 5.992188 -9.050781 5.546875 -8.4375 C 5.097656 -7.832031 4.859375 -6.914062 4.828125 -5.6875 L 4.65625 0.140625 Z M 1.578125 0.046875 "/></g></g></g><g fill="#ffffff" fill-opacity="1"><g transform="translate(915.953572, 120.147505)"><g><path d="M 4.3125 0.34375 C 3.164062 0.3125 2.273438 -0.0234375 1.640625 -0.671875 C 1.015625 -1.316406 0.71875 -2.207031 0.75 -3.34375 C 0.789062 -4.570312 1.21875 -5.492188 2.03125 -6.109375 C 2.851562 -6.734375 4.023438 -7.03125 5.546875 -7 L 8.125 -6.96875 L 8.140625 -7.578125 C 8.160156 -8.347656 8.039062 -8.925781 7.78125 -9.3125 C 7.519531 -9.707031 7.082031 -9.910156 6.46875 -9.921875 C 5.894531 -9.941406 5.46875 -9.828125 5.1875 -9.578125 C 4.914062 -9.328125 4.742188 -8.898438 4.671875 -8.296875 L 1.453125 -8.546875 C 1.679688 -9.691406 2.234375 -10.550781 3.109375 -11.125 C 3.992188 -11.695312 5.179688 -11.960938 6.671875 -11.921875 C 8.171875 -11.878906 9.316406 -11.472656 10.109375 -10.703125 C 10.898438 -9.941406 11.273438 -8.878906 11.234375 -7.515625 L 11.109375 -3.1875 C 11.085938 -2.519531 11.144531 -2.0625 11.28125 -1.8125 C 11.425781 -1.5625 11.671875 -1.429688 12.015625 -1.421875 C 12.253906 -1.410156 12.484375 -1.421875 12.703125 -1.453125 L 12.65625 0.21875 C 12.46875 0.25 12.300781 0.28125 12.15625 0.3125 C 12.007812 0.34375 11.863281 0.367188 11.71875 0.390625 C 11.570312 0.421875 11.414062 0.4375 11.25 0.4375 C 11.09375 0.445312 10.898438 0.445312 10.671875 0.4375 C 9.898438 0.414062 9.332031 0.210938 8.96875 -0.171875 C 8.613281 -0.566406 8.410156 -1.132812 8.359375 -1.875 L 8.296875 -1.890625 C 7.390625 -0.347656 6.0625 0.394531 4.3125 0.34375 Z M 8.0625 -5.265625 L 6.484375 -5.296875 C 5.765625 -5.285156 5.25 -5.21875 4.9375 -5.09375 C 4.632812 -4.976562 4.398438 -4.789062 4.234375 -4.53125 C 4.078125 -4.28125 3.992188 -3.9375 3.984375 -3.5 C 3.960938 -2.925781 4.078125 -2.5 4.328125 -2.21875 C 4.585938 -1.9375 4.9375 -1.789062 5.375 -1.78125 C 5.851562 -1.769531 6.296875 -1.882812 6.703125 -2.125 C 7.109375 -2.375 7.429688 -2.726562 7.671875 -3.1875 C 7.910156 -3.65625 8.035156 -4.148438 8.046875 -4.671875 Z M 8.0625 -5.265625 "/></g></g></g><g fill="#ffffff" fill-opacity="1"><g transform="translate(929.041838, 120.531326)"><g><path d="M 1.578125 0.046875 L 2.0625 -16.25 L 5.140625 -16.15625 L 4.65625 0.140625 Z M 1.578125 0.046875 "/></g></g></g><g fill="#ffffff" fill-opacity="1"><g transform="translate(935.872769, 120.731648)"><g><path d="M 4.3125 0.34375 C 3.164062 0.3125 2.273438 -0.0234375 1.640625 -0.671875 C 1.015625 -1.316406 0.71875 -2.207031 0.75 -3.34375 C 0.789062 -4.570312 1.21875 -5.492188 2.03125 -6.109375 C 2.851562 -6.734375 4.023438 -7.03125 5.546875 -7 L 8.125 -6.96875 L 8.140625 -7.578125 C 8.160156 -8.347656 8.039062 -8.925781 7.78125 -9.3125 C 7.519531 -9.707031 7.082031 -9.910156 6.46875 -9.921875 C 5.894531 -9.941406 5.46875 -9.828125 5.1875 -9.578125 C 4.914062 -9.328125 4.742188 -8.898438 4.671875 -8.296875 L 1.453125 -8.546875 C 1.679688 -9.691406 2.234375 -10.550781 3.109375 -11.125 C 3.992188 -11.695312 5.179688 -11.960938 6.671875 -11.921875 C 8.171875 -11.878906 9.316406 -11.472656 10.109375 -10.703125 C 10.898438 -9.941406 11.273438 -8.878906 11.234375 -7.515625 L 11.109375 -3.1875 C 11.085938 -2.519531 11.144531 -2.0625 11.28125 -1.8125 C 11.425781 -1.5625 11.671875 -1.429688 12.015625 -1.421875 C 12.253906 -1.410156 12.484375 -1.421875 12.703125 -1.453125 L 12.65625 0.21875 C 12.46875 0.25 12.300781 0.28125 12.15625 0.3125 C 12.007812 0.34375 11.863281 0.367188 11.71875 0.390625 C 11.570312 0.421875 11.414062 0.4375 11.25 0.4375 C 11.09375 0.445312 10.898438 0.445312 10.671875 0.4375 C 9.898438 0.414062 9.332031 0.210938 8.96875 -0.171875 C 8.613281 -0.566406 8.410156 -1.132812 8.359375 -1.875 L 8.296875 -1.890625 C 7.390625 -0.347656 6.0625 0.394531 4.3125 0.34375 Z M 8.0625 -5.265625 L 6.484375 -5.296875 C 5.765625 -5.285156 5.25 -5.21875 4.9375 -5.09375 C 4.632812 -4.976562 4.398438 -4.789062 4.234375 -4.53125 C 4.078125 -4.28125 3.992188 -3.9375 3.984375 -3.5 C 3.960938 -2.925781 4.078125 -2.5 4.328125 -2.21875 C 4.585938 -1.9375 4.9375 -1.789062 5.375 -1.78125 C 5.851562 -1.769531 6.296875 -1.882812 6.703125 -2.125 C 7.109375 -2.375 7.429688 -2.726562 7.671875 -3.1875 C 7.910156 -3.65625 8.035156 -4.148438 8.046875 -4.671875 Z M 6.71875 -12.8125 C 5.613281 -12.84375 4.722656 -13.203125 4.046875 -13.890625 C 3.378906 -14.578125 3.019531 -15.4375 2.96875 -16.46875 L 4.765625 -16.421875 C 4.859375 -15.859375 5.09375 -15.40625 5.46875 -15.0625 C 5.84375 -14.726562 6.289062 -14.550781 6.8125 -14.53125 C 7.332031 -14.519531 7.785156 -14.664062 8.171875 -14.96875 C 8.566406 -15.269531 8.820312 -15.710938 8.9375 -16.296875 L 10.75 -16.25 C 10.582031 -15.164062 10.148438 -14.3125 9.453125 -13.6875 C 8.753906 -13.070312 7.84375 -12.78125 6.71875 -12.8125 Z M 6.71875 -12.8125 "/></g></g></g><g fill="#ffffff" fill-opacity="1"><g transform="translate(831.789345, 343.39339)"><g><path d="M 14.234375 -10.578125 C 14.234375 -9.578125 14.003906 -8.6875 13.546875 -7.90625 C 13.097656 -7.125 12.453125 -6.519531 11.609375 -6.09375 C 10.765625 -5.664062 9.757812 -5.453125 8.59375 -5.453125 L 4.75 -5.453125 L 4.75 0 L 1.5 0 L 1.5 -15.484375 L 8.453125 -15.484375 C 10.304688 -15.484375 11.734375 -15.054688 12.734375 -14.203125 C 13.734375 -13.347656 14.234375 -12.140625 14.234375 -10.578125 Z M 10.96875 -10.53125 C 10.96875 -12.15625 10.007812 -12.96875 8.09375 -12.96875 L 4.75 -12.96875 L 4.75 -7.9375 L 8.1875 -7.9375 C 9.082031 -7.9375 9.769531 -8.15625 10.25 -8.59375 C 10.726562 -9.039062 10.96875 -9.6875 10.96875 -10.53125 Z M 10.96875 -10.53125 "/></g></g></g><g fill="#ffffff" fill-opacity="1"><g transform="translate(847.376263, 343.39339)"><g><path d="M 6.4375 0.21875 C 4.644531 0.21875 3.269531 -0.304688 2.3125 -1.359375 C 1.351562 -2.421875 0.875 -3.96875 0.875 -6 C 0.875 -7.957031 1.359375 -9.460938 2.328125 -10.515625 C 3.304688 -11.578125 4.691406 -12.109375 6.484375 -12.109375 C 8.191406 -12.109375 9.492188 -11.539062 10.390625 -10.40625 C 11.296875 -9.28125 11.75 -7.625 11.75 -5.4375 L 11.75 -5.34375 L 4.125 -5.34375 C 4.125 -4.1875 4.335938 -3.3125 4.765625 -2.71875 C 5.191406 -2.132812 5.800781 -1.84375 6.59375 -1.84375 C 7.6875 -1.84375 8.375 -2.316406 8.65625 -3.265625 L 11.5625 -3.015625 C 10.726562 -0.859375 9.019531 0.21875 6.4375 0.21875 Z M 6.4375 -10.15625 C 5.707031 -10.15625 5.144531 -9.898438 4.75 -9.390625 C 4.363281 -8.890625 4.160156 -8.1875 4.140625 -7.28125 L 8.75 -7.28125 C 8.695312 -8.238281 8.46875 -8.957031 8.0625 -9.4375 C 7.65625 -9.914062 7.113281 -10.15625 6.4375 -10.15625 Z M 6.4375 -10.15625 "/></g></g></g><g fill="#ffffff" fill-opacity="1"><g transform="translate(860.470154, 343.39339)"><g><path d="M 9.265625 0 C 9.242188 -0.113281 9.210938 -0.390625 9.171875 -0.828125 C 9.128906 -1.273438 9.109375 -1.644531 9.109375 -1.9375 L 9.0625 -1.9375 C 8.394531 -0.5 7.128906 0.21875 5.265625 0.21875 C 3.878906 0.21875 2.804688 -0.316406 2.046875 -1.390625 C 1.296875 -2.472656 0.921875 -3.988281 0.921875 -5.9375 C 0.921875 -7.90625 1.316406 -9.425781 2.109375 -10.5 C 2.910156 -11.570312 4.039062 -12.109375 5.5 -12.109375 C 6.332031 -12.109375 7.054688 -11.929688 7.671875 -11.578125 C 8.285156 -11.222656 8.753906 -10.703125 9.078125 -10.015625 L 9.109375 -10.015625 L 9.078125 -11.96875 L 9.078125 -16.296875 L 12.171875 -16.296875 L 12.171875 -2.59375 C 12.171875 -1.863281 12.203125 -1 12.265625 0 Z M 9.125 -6.015625 C 9.125 -7.296875 8.910156 -8.28125 8.484375 -8.96875 C 8.054688 -9.664062 7.425781 -10.015625 6.59375 -10.015625 C 5.757812 -10.015625 5.140625 -9.675781 4.734375 -9 C 4.335938 -8.332031 4.140625 -7.3125 4.140625 -5.9375 C 4.140625 -3.238281 4.945312 -1.890625 6.5625 -1.890625 C 7.382812 -1.890625 8.015625 -2.242188 8.453125 -2.953125 C 8.898438 -3.671875 9.125 -4.691406 9.125 -6.015625 Z M 9.125 -6.015625 "/></g></g></g><g fill="#ffffff" fill-opacity="1"><g transform="translate(874.794087, 343.39339)"><g><path d="M 4.3125 0.21875 C 3.164062 0.21875 2.269531 -0.09375 1.625 -0.71875 C 0.976562 -1.34375 0.65625 -2.222656 0.65625 -3.359375 C 0.65625 -4.585938 1.054688 -5.523438 1.859375 -6.171875 C 2.660156 -6.816406 3.820312 -7.144531 5.34375 -7.15625 L 7.90625 -7.203125 L 7.90625 -7.8125 C 7.90625 -8.582031 7.769531 -9.15625 7.5 -9.53125 C 7.226562 -9.914062 6.785156 -10.109375 6.171875 -10.109375 C 5.597656 -10.109375 5.175781 -9.976562 4.90625 -9.71875 C 4.644531 -9.457031 4.484375 -9.023438 4.421875 -8.421875 L 1.203125 -8.578125 C 1.398438 -9.734375 1.925781 -10.609375 2.78125 -11.203125 C 3.644531 -11.804688 4.820312 -12.109375 6.3125 -12.109375 C 7.8125 -12.109375 8.96875 -11.738281 9.78125 -11 C 10.59375 -10.257812 11 -9.207031 11 -7.84375 L 11 -3.515625 C 11 -2.847656 11.070312 -2.390625 11.21875 -2.140625 C 11.375 -1.890625 11.625 -1.765625 11.96875 -1.765625 C 12.207031 -1.765625 12.4375 -1.785156 12.65625 -1.828125 L 12.65625 -0.15625 C 12.46875 -0.113281 12.300781 -0.0703125 12.15625 -0.03125 C 12.007812 0 11.863281 0.0234375 11.71875 0.046875 C 11.570312 0.078125 11.414062 0.0976562 11.25 0.109375 C 11.09375 0.117188 10.898438 0.125 10.671875 0.125 C 9.898438 0.125 9.328125 -0.0625 8.953125 -0.4375 C 8.585938 -0.820312 8.367188 -1.382812 8.296875 -2.125 L 8.234375 -2.125 C 7.367188 -0.5625 6.0625 0.21875 4.3125 0.21875 Z M 7.90625 -5.5 L 6.328125 -5.484375 C 5.609375 -5.453125 5.097656 -5.367188 4.796875 -5.234375 C 4.492188 -5.109375 4.265625 -4.914062 4.109375 -4.65625 C 3.953125 -4.394531 3.875 -4.046875 3.875 -3.609375 C 3.875 -3.035156 4.003906 -2.613281 4.265625 -2.34375 C 4.523438 -2.070312 4.875 -1.9375 5.3125 -1.9375 C 5.789062 -1.9375 6.226562 -2.066406 6.625 -2.328125 C 7.03125 -2.585938 7.34375 -2.953125 7.5625 -3.421875 C 7.789062 -3.890625 7.90625 -4.382812 7.90625 -4.90625 Z M 7.90625 -5.5 "/></g></g></g><g fill="#ffffff" fill-opacity="1"><g transform="translate(887.887979, 343.39339)"><g><path d="M 6.546875 4.765625 C 5.097656 4.765625 3.929688 4.488281 3.046875 3.9375 C 2.160156 3.382812 1.617188 2.597656 1.421875 1.578125 L 4.5 1.203125 C 4.613281 1.679688 4.847656 2.054688 5.203125 2.328125 C 5.566406 2.597656 6.046875 2.734375 6.640625 2.734375 C 7.492188 2.734375 8.117188 2.46875 8.515625 1.9375 C 8.910156 1.414062 9.109375 0.632812 9.109375 -0.40625 L 9.109375 -1.03125 L 9.125 -2.203125 L 9.109375 -2.203125 C 8.429688 -0.742188 7.15625 -0.015625 5.28125 -0.015625 C 3.894531 -0.015625 2.820312 -0.535156 2.0625 -1.578125 C 1.300781 -2.617188 0.921875 -4.109375 0.921875 -6.046875 C 0.921875 -7.984375 1.3125 -9.476562 2.09375 -10.53125 C 2.882812 -11.59375 4.023438 -12.125 5.515625 -12.125 C 7.242188 -12.125 8.441406 -11.40625 9.109375 -9.96875 L 9.15625 -9.96875 C 9.15625 -10.226562 9.171875 -10.578125 9.203125 -11.015625 C 9.242188 -11.453125 9.28125 -11.742188 9.3125 -11.890625 L 12.234375 -11.890625 C 12.191406 -11.097656 12.171875 -10.179688 12.171875 -9.140625 L 12.171875 -0.359375 C 12.171875 1.328125 11.691406 2.601562 10.734375 3.46875 C 9.773438 4.332031 8.378906 4.765625 6.546875 4.765625 Z M 9.125 -6.109375 C 9.125 -7.328125 8.90625 -8.28125 8.46875 -8.96875 C 8.039062 -9.65625 7.421875 -10 6.609375 -10 C 4.960938 -10 4.140625 -8.679688 4.140625 -6.046875 C 4.140625 -3.460938 4.957031 -2.171875 6.59375 -2.171875 C 7.414062 -2.171875 8.039062 -2.507812 8.46875 -3.1875 C 8.90625 -3.875 9.125 -4.847656 9.125 -6.109375 Z M 9.125 -6.109375 "/></g></g></g><g fill="#ffffff" fill-opacity="1"><g transform="translate(902.211911, 343.39339)"><g><path d="M 12.859375 -5.953125 C 12.859375 -4.023438 12.320312 -2.515625 11.25 -1.421875 C 10.1875 -0.328125 8.710938 0.21875 6.828125 0.21875 C 4.972656 0.21875 3.515625 -0.328125 2.453125 -1.421875 C 1.398438 -2.523438 0.875 -4.035156 0.875 -5.953125 C 0.875 -7.867188 1.398438 -9.375 2.453125 -10.46875 C 3.515625 -11.5625 4.992188 -12.109375 6.890625 -12.109375 C 8.828125 -12.109375 10.304688 -11.578125 11.328125 -10.515625 C 12.347656 -9.460938 12.859375 -7.941406 12.859375 -5.953125 Z M 9.640625 -5.953125 C 9.640625 -7.367188 9.40625 -8.394531 8.9375 -9.03125 C 8.476562 -9.664062 7.8125 -9.984375 6.9375 -9.984375 C 5.0625 -9.984375 4.125 -8.640625 4.125 -5.953125 C 4.125 -4.628906 4.351562 -3.617188 4.8125 -2.921875 C 5.269531 -2.234375 5.929688 -1.890625 6.796875 -1.890625 C 8.691406 -1.890625 9.640625 -3.242188 9.640625 -5.953125 Z M 9.640625 -5.953125 "/></g></g></g><g fill="#ffffff" fill-opacity="1"><g transform="translate(916.535844, 343.39339)"><g><path d="M 6.546875 4.765625 C 5.097656 4.765625 3.929688 4.488281 3.046875 3.9375 C 2.160156 3.382812 1.617188 2.597656 1.421875 1.578125 L 4.5 1.203125 C 4.613281 1.679688 4.847656 2.054688 5.203125 2.328125 C 5.566406 2.597656 6.046875 2.734375 6.640625 2.734375 C 7.492188 2.734375 8.117188 2.46875 8.515625 1.9375 C 8.910156 1.414062 9.109375 0.632812 9.109375 -0.40625 L 9.109375 -1.03125 L 9.125 -2.203125 L 9.109375 -2.203125 C 8.429688 -0.742188 7.15625 -0.015625 5.28125 -0.015625 C 3.894531 -0.015625 2.820312 -0.535156 2.0625 -1.578125 C 1.300781 -2.617188 0.921875 -4.109375 0.921875 -6.046875 C 0.921875 -7.984375 1.3125 -9.476562 2.09375 -10.53125 C 2.882812 -11.59375 4.023438 -12.125 5.515625 -12.125 C 7.242188 -12.125 8.441406 -11.40625 9.109375 -9.96875 L 9.15625 -9.96875 C 9.15625 -10.226562 9.171875 -10.578125 9.203125 -11.015625 C 9.242188 -11.453125 9.28125 -11.742188 9.3125 -11.890625 L 12.234375 -11.890625 C 12.191406 -11.097656 12.171875 -10.179688 12.171875 -9.140625 L 12.171875 -0.359375 C 12.171875 1.328125 11.691406 2.601562 10.734375 3.46875 C 9.773438 4.332031 8.378906 4.765625 6.546875 4.765625 Z M 9.125 -6.109375 C 9.125 -7.328125 8.90625 -8.28125 8.46875 -8.96875 C 8.039062 -9.65625 7.421875 -10 6.609375 -10 C 4.960938 -10 4.140625 -8.679688 4.140625 -6.046875 C 4.140625 -3.460938 4.957031 -2.171875 6.59375 -2.171875 C 7.414062 -2.171875 8.039062 -2.507812 8.46875 -3.1875 C 8.90625 -3.875 9.125 -4.847656 9.125 -6.109375 Z M 9.125 -6.109375 "/></g></g></g><g fill="#ffffff" fill-opacity="1"><g transform="translate(930.859771, 343.39339)"><g><path d="M 1.578125 -14.03125 L 1.578125 -16.296875 L 4.65625 -16.296875 L 4.65625 -14.03125 Z M 1.578125 0 L 1.578125 -11.890625 L 4.65625 -11.890625 L 4.65625 0 Z M 1.578125 0 "/></g></g></g><g fill="#ffffff" fill-opacity="1"><g transform="translate(937.69364, 343.39339)"><g><path d="M 6.53125 0.21875 C 4.726562 0.21875 3.332031 -0.316406 2.34375 -1.390625 C 1.363281 -2.460938 0.875 -3.957031 0.875 -5.875 C 0.875 -7.84375 1.367188 -9.375 2.359375 -10.46875 C 3.347656 -11.5625 4.75 -12.109375 6.5625 -12.109375 C 7.96875 -12.109375 9.128906 -11.753906 10.046875 -11.046875 C 10.960938 -10.347656 11.535156 -9.378906 11.765625 -8.140625 L 8.65625 -7.984375 C 8.570312 -8.597656 8.351562 -9.082031 8 -9.4375 C 7.644531 -9.800781 7.144531 -9.984375 6.5 -9.984375 C 4.914062 -9.984375 4.125 -8.65625 4.125 -6 C 4.125 -3.257812 4.929688 -1.890625 6.546875 -1.890625 C 7.128906 -1.890625 7.617188 -2.070312 8.015625 -2.4375 C 8.410156 -2.8125 8.65625 -3.363281 8.75 -4.09375 L 11.859375 -3.953125 C 11.742188 -3.140625 11.445312 -2.414062 10.96875 -1.78125 C 10.5 -1.144531 9.878906 -0.648438 9.109375 -0.296875 C 8.347656 0.046875 7.488281 0.21875 6.53125 0.21875 Z M 6.53125 0.21875 "/></g></g></g><g fill="#ffffff" fill-opacity="1"><g transform="translate(950.787532, 343.39339)"><g><path d="M 4.3125 0.21875 C 3.164062 0.21875 2.269531 -0.09375 1.625 -0.71875 C 0.976562 -1.34375 0.65625 -2.222656 0.65625 -3.359375 C 0.65625 -4.585938 1.054688 -5.523438 1.859375 -6.171875 C 2.660156 -6.816406 3.820312 -7.144531 5.34375 -7.15625 L 7.90625 -7.203125 L 7.90625 -7.8125 C 7.90625 -8.582031 7.769531 -9.15625 7.5 -9.53125 C 7.226562 -9.914062 6.785156 -10.109375 6.171875 -10.109375 C 5.597656 -10.109375 5.175781 -9.976562 4.90625 -9.71875 C 4.644531 -9.457031 4.484375 -9.023438 4.421875 -8.421875 L 1.203125 -8.578125 C 1.398438 -9.734375 1.925781 -10.609375 2.78125 -11.203125 C 3.644531 -11.804688 4.820312 -12.109375 6.3125 -12.109375 C 7.8125 -12.109375 8.96875 -11.738281 9.78125 -11 C 10.59375 -10.257812 11 -9.207031 11 -7.84375 L 11 -3.515625 C 11 -2.847656 11.070312 -2.390625 11.21875 -2.140625 C 11.375 -1.890625 11.625 -1.765625 11.96875 -1.765625 C 12.207031 -1.765625 12.4375 -1.785156 12.65625 -1.828125 L 12.65625 -0.15625 C 12.46875 -0.113281 12.300781 -0.0703125 12.15625 -0.03125 C 12.007812 0 11.863281 0.0234375 11.71875 0.046875 C 11.570312 0.078125 11.414062 0.0976562 11.25 0.109375 C 11.09375 0.117188 10.898438 0.125 10.671875 0.125 C 9.898438 0.125 9.328125 -0.0625 8.953125 -0.4375 C 8.585938 -0.820312 8.367188 -1.382812 8.296875 -2.125 L 8.234375 -2.125 C 7.367188 -0.5625 6.0625 0.21875 4.3125 0.21875 Z M 7.90625 -5.5 L 6.328125 -5.484375 C 5.609375 -5.453125 5.097656 -5.367188 4.796875 -5.234375 C 4.492188 -5.109375 4.265625 -4.914062 4.109375 -4.65625 C 3.953125 -4.394531 3.875 -4.046875 3.875 -3.609375 C 3.875 -3.035156 4.003906 -2.613281 4.265625 -2.34375 C 4.523438 -2.070312 4.875 -1.9375 5.3125 -1.9375 C 5.789062 -1.9375 6.226562 -2.066406 6.625 -2.328125 C 7.03125 -2.585938 7.34375 -2.953125 7.5625 -3.421875 C 7.789062 -3.890625 7.90625 -4.382812 7.90625 -4.90625 Z M 6.34375 -13 C 5.238281 -13 4.335938 -13.332031 3.640625 -14 C 2.953125 -14.664062 2.566406 -15.515625 2.484375 -16.546875 L 4.28125 -16.546875 C 4.394531 -15.984375 4.640625 -15.535156 5.015625 -15.203125 C 5.398438 -14.878906 5.851562 -14.71875 6.375 -14.71875 C 6.894531 -14.71875 7.347656 -14.875 7.734375 -15.1875 C 8.117188 -15.507812 8.359375 -15.960938 8.453125 -16.546875 L 10.265625 -16.546875 C 10.128906 -15.460938 9.722656 -14.597656 9.046875 -13.953125 C 8.367188 -13.316406 7.46875 -13 6.34375 -13 Z M 6.34375 -13 "/></g></g></g><g fill="#ffffff" fill-opacity="1"><g transform="translate(850.582875, 236.511481)"><g><path d="M 1.5 -0.03125 L 1.09375 -15.515625 L 4.34375 -15.609375 L 4.6875 -2.625 L 12.984375 -2.84375 L 13.046875 -0.34375 Z M 1.5 -0.03125 "/></g></g></g><g fill="#ffffff" fill-opacity="1"><g transform="translate(864.902033, 236.141712)"><g><path d="M 1.21875 -14.078125 L 1.15625 -16.34375 L 4.234375 -16.421875 L 4.296875 -14.15625 Z M 1.578125 -0.046875 L 1.265625 -11.9375 L 4.34375 -12.015625 L 4.65625 -0.125 Z M 1.578125 -0.046875 "/></g></g></g><g fill="#ffffff" fill-opacity="1"><g transform="translate(871.733621, 235.965298)"><g><path d="M 9.265625 -0.234375 L 9.09375 -6.90625 C 9.039062 -8.988281 8.3125 -10.015625 6.90625 -9.984375 C 6.15625 -9.960938 5.554688 -9.625 5.109375 -8.96875 C 4.671875 -8.320312 4.460938 -7.5 4.484375 -6.5 L 4.65625 -0.125 L 1.578125 -0.046875 L 1.34375 -9.28125 C 1.320312 -9.914062 1.296875 -10.4375 1.265625 -10.84375 C 1.234375 -11.25 1.203125 -11.609375 1.171875 -11.921875 L 4.109375 -12 C 4.140625 -11.851562 4.179688 -11.476562 4.234375 -10.875 C 4.296875 -10.28125 4.328125 -9.875 4.328125 -9.65625 L 4.359375 -9.65625 C 4.753906 -10.570312 5.257812 -11.242188 5.875 -11.671875 C 6.5 -12.097656 7.25 -12.320312 8.125 -12.34375 C 9.382812 -12.375 10.359375 -12.003906 11.046875 -11.234375 C 11.742188 -10.472656 12.113281 -9.347656 12.15625 -7.859375 L 12.34375 -0.3125 Z M 9.265625 -0.234375 "/></g></g></g><g fill="#ffffff" fill-opacity="1"><g transform="translate(886.05278, 235.595529)"><g><path d="M 6.671875 4.59375 C 5.222656 4.632812 4.046875 4.390625 3.140625 3.859375 C 2.242188 3.328125 1.6875 2.554688 1.46875 1.546875 L 4.53125 1.09375 C 4.65625 1.5625 4.898438 1.925781 5.265625 2.1875 C 5.640625 2.457031 6.125 2.582031 6.71875 2.5625 C 7.570312 2.539062 8.1875 2.257812 8.5625 1.71875 C 8.945312 1.1875 9.125 0.398438 9.09375 -0.640625 L 9.078125 -1.265625 L 9.0625 -2.4375 L 9.046875 -2.4375 C 8.410156 -0.957031 7.15625 -0.195312 5.28125 -0.15625 C 3.894531 -0.113281 2.804688 -0.601562 2.015625 -1.625 C 1.234375 -2.65625 0.816406 -4.140625 0.765625 -6.078125 C 0.710938 -8.015625 1.066406 -9.519531 1.828125 -10.59375 C 2.585938 -11.664062 3.710938 -12.222656 5.203125 -12.265625 C 6.929688 -12.304688 8.148438 -11.617188 8.859375 -10.203125 L 8.90625 -10.203125 C 8.894531 -10.460938 8.898438 -10.8125 8.921875 -11.25 C 8.953125 -11.6875 8.976562 -11.976562 9 -12.125 L 11.921875 -12.203125 C 11.898438 -11.410156 11.90625 -10.492188 11.9375 -9.453125 L 12.15625 -0.671875 C 12.207031 1.015625 11.765625 2.300781 10.828125 3.1875 C 9.890625 4.082031 8.503906 4.550781 6.671875 4.59375 Z M 8.96875 -6.34375 C 8.9375 -7.5625 8.691406 -8.507812 8.234375 -9.1875 C 7.785156 -9.863281 7.15625 -10.191406 6.34375 -10.171875 C 4.695312 -10.128906 3.910156 -8.789062 3.984375 -6.15625 C 4.046875 -3.570312 4.894531 -2.300781 6.53125 -2.34375 C 7.351562 -2.363281 7.972656 -2.71875 8.390625 -3.40625 C 8.804688 -4.101562 9 -5.082031 8.96875 -6.34375 Z M 8.96875 -6.34375 "/></g></g></g><g fill="#ffffff" fill-opacity="1"><g transform="translate(900.371939, 235.22576)"><g><path d="M 8.03125 -0.203125 L 4.34375 -0.109375 L -0.21875 -11.890625 L 3.03125 -11.984375 L 5.28125 -5.375 C 5.40625 -5.007812 5.691406 -4.101562 6.140625 -2.65625 C 6.203125 -2.945312 6.335938 -3.472656 6.546875 -4.234375 C 6.753906 -5.003906 7.53125 -7.632812 8.875 -12.125 L 12.109375 -12.21875 Z M 8.03125 -0.203125 "/></g></g></g><g fill="#ffffff" fill-opacity="1"><g transform="translate(913.461468, 234.887744)"><g><path d="M 1.21875 -14.078125 L 1.15625 -16.34375 L 4.234375 -16.421875 L 4.296875 -14.15625 Z M 1.578125 -0.046875 L 1.265625 -11.9375 L 4.34375 -12.015625 L 4.65625 -0.125 Z M 1.578125 -0.046875 "/></g></g></g><g fill="#ffffff" fill-opacity="1"><g transform="translate(920.293054, 234.71133)"><g><path d="M 11.5 -3.765625 C 11.53125 -2.617188 11.082031 -1.703125 10.15625 -1.015625 C 9.226562 -0.335938 7.929688 0.0195312 6.265625 0.0625 C 4.640625 0.101562 3.382812 -0.117188 2.5 -0.609375 C 1.625 -1.109375 1.03125 -1.898438 0.71875 -2.984375 L 3.40625 -3.46875 C 3.582031 -2.90625 3.859375 -2.507812 4.234375 -2.28125 C 4.617188 -2.0625 5.28125 -1.960938 6.21875 -1.984375 C 7.082031 -2.003906 7.707031 -2.128906 8.09375 -2.359375 C 8.488281 -2.585938 8.679688 -2.9375 8.671875 -3.40625 C 8.660156 -3.78125 8.492188 -4.078125 8.171875 -4.296875 C 7.847656 -4.515625 7.300781 -4.691406 6.53125 -4.828125 C 4.78125 -5.128906 3.597656 -5.421875 2.984375 -5.703125 C 2.367188 -5.984375 1.894531 -6.351562 1.5625 -6.8125 C 1.238281 -7.28125 1.066406 -7.859375 1.046875 -8.546875 C 1.015625 -9.679688 1.425781 -10.578125 2.28125 -11.234375 C 3.144531 -11.890625 4.378906 -12.238281 5.984375 -12.28125 C 7.398438 -12.320312 8.546875 -12.078125 9.421875 -11.546875 C 10.296875 -11.015625 10.847656 -10.234375 11.078125 -9.203125 L 8.359375 -8.84375 C 8.265625 -9.320312 8.039062 -9.675781 7.6875 -9.90625 C 7.332031 -10.132812 6.78125 -10.238281 6.03125 -10.21875 C 5.300781 -10.207031 4.753906 -10.101562 4.390625 -9.90625 C 4.023438 -9.707031 3.847656 -9.390625 3.859375 -8.953125 C 3.867188 -8.609375 4.015625 -8.335938 4.296875 -8.140625 C 4.585938 -7.941406 5.070312 -7.789062 5.75 -7.6875 C 6.6875 -7.507812 7.515625 -7.332031 8.234375 -7.15625 C 8.960938 -6.976562 9.546875 -6.753906 9.984375 -6.484375 C 10.429688 -6.210938 10.789062 -5.863281 11.0625 -5.4375 C 11.34375 -5.007812 11.488281 -4.453125 11.5 -3.765625 Z M 11.5 -3.765625 "/></g></g></g><g fill="#ffffff" fill-opacity="1"><g transform="translate(933.382583, 234.373314)"><g><path d="M 4.609375 0.078125 C 3.703125 0.109375 3 -0.113281 2.5 -0.59375 C 2 -1.082031 1.734375 -1.832031 1.703125 -2.84375 L 1.53125 -9.84375 L 0.03125 -9.796875 L -0.03125 -11.890625 L 1.625 -11.9375 L 2.53125 -14.75 L 4.453125 -14.796875 L 4.515625 -12.015625 L 6.78125 -12.078125 L 6.84375 -9.984375 L 4.578125 -9.921875 L 4.734375 -3.75 C 4.742188 -3.164062 4.863281 -2.738281 5.09375 -2.46875 C 5.332031 -2.207031 5.679688 -2.082031 6.140625 -2.09375 C 6.378906 -2.101562 6.722656 -2.164062 7.171875 -2.28125 L 7.21875 -0.359375 C 6.457031 -0.0859375 5.585938 0.0546875 4.609375 0.078125 Z M 4.609375 0.078125 "/></g></g></g><g fill="#ffffff" fill-opacity="1"><g transform="translate(941.454776, 234.164863)"><g><path d="M 1.21875 -14.078125 L 1.15625 -16.34375 L 4.234375 -16.421875 L 4.296875 -14.15625 Z M 1.578125 -0.046875 L 1.265625 -11.9375 L 4.34375 -12.015625 L 4.65625 -0.125 Z M 1.578125 -0.046875 "/></g></g></g><g fill="#ffffff" fill-opacity="1"><g transform="translate(948.286367, 233.988448)"><g><path d="M 6.53125 0.046875 C 4.726562 0.0976562 3.320312 -0.394531 2.3125 -1.4375 C 1.300781 -2.488281 0.769531 -3.972656 0.71875 -5.890625 C 0.664062 -7.859375 1.117188 -9.398438 2.078125 -10.515625 C 3.046875 -11.640625 4.4375 -12.226562 6.25 -12.28125 C 7.65625 -12.3125 8.820312 -11.988281 9.75 -11.3125 C 10.6875 -10.632812 11.289062 -9.675781 11.5625 -8.4375 L 8.453125 -8.203125 C 8.347656 -8.816406 8.113281 -9.296875 7.75 -9.640625 C 7.394531 -9.992188 6.894531 -10.164062 6.25 -10.15625 C 4.664062 -10.113281 3.90625 -8.765625 3.96875 -6.109375 C 4.039062 -3.367188 4.882812 -2.019531 6.5 -2.0625 C 7.082031 -2.070312 7.566406 -2.265625 7.953125 -2.640625 C 8.335938 -3.023438 8.566406 -3.582031 8.640625 -4.3125 L 11.75 -4.265625 C 11.65625 -3.441406 11.378906 -2.707031 10.921875 -2.0625 C 10.472656 -1.414062 9.867188 -0.90625 9.109375 -0.53125 C 8.347656 -0.164062 7.488281 0.0234375 6.53125 0.046875 Z M 6.53125 0.046875 "/></g></g></g><g fill="#ffffff" fill-opacity="1"><g transform="translate(961.375896, 233.650432)"><g><path d="M 4.3125 0.109375 C 3.164062 0.140625 2.257812 -0.144531 1.59375 -0.75 C 0.9375 -1.363281 0.59375 -2.238281 0.5625 -3.375 C 0.53125 -4.601562 0.90625 -5.550781 1.6875 -6.21875 C 2.476562 -6.882812 3.632812 -7.242188 5.15625 -7.296875 L 7.71875 -7.40625 L 7.703125 -8.015625 C 7.679688 -8.785156 7.53125 -9.359375 7.25 -9.734375 C 6.96875 -10.109375 6.519531 -10.285156 5.90625 -10.265625 C 5.332031 -10.253906 4.914062 -10.113281 4.65625 -9.84375 C 4.40625 -9.570312 4.253906 -9.132812 4.203125 -8.53125 L 0.984375 -8.609375 C 1.148438 -9.765625 1.65625 -10.65625 2.5 -11.28125 C 3.34375 -11.90625 4.507812 -12.234375 6 -12.265625 C 7.5 -12.304688 8.664062 -11.96875 9.5 -11.25 C 10.332031 -10.53125 10.765625 -9.488281 10.796875 -8.125 L 10.90625 -3.796875 C 10.925781 -3.128906 11.015625 -2.671875 11.171875 -2.421875 C 11.328125 -2.179688 11.578125 -2.066406 11.921875 -2.078125 C 12.160156 -2.078125 12.390625 -2.101562 12.609375 -2.15625 L 12.65625 -0.484375 C 12.46875 -0.429688 12.300781 -0.382812 12.15625 -0.34375 C 12.007812 -0.3125 11.863281 -0.28125 11.71875 -0.25 C 11.570312 -0.21875 11.414062 -0.191406 11.25 -0.171875 C 11.09375 -0.160156 10.898438 -0.15625 10.671875 -0.15625 C 9.898438 -0.132812 9.320312 -0.304688 8.9375 -0.671875 C 8.5625 -1.046875 8.328125 -1.601562 8.234375 -2.34375 L 8.171875 -2.34375 C 7.347656 -0.75 6.0625 0.0664062 4.3125 0.109375 Z M 7.765625 -5.703125 L 6.1875 -5.640625 C 5.46875 -5.597656 4.957031 -5.503906 4.65625 -5.359375 C 4.363281 -5.222656 4.140625 -5.019531 3.984375 -4.75 C 3.835938 -4.488281 3.769531 -4.140625 3.78125 -3.703125 C 3.789062 -3.128906 3.929688 -2.710938 4.203125 -2.453125 C 4.472656 -2.191406 4.828125 -2.066406 5.265625 -2.078125 C 5.742188 -2.085938 6.179688 -2.226562 6.578125 -2.5 C 6.972656 -2.769531 7.273438 -3.140625 7.484375 -3.609375 C 7.691406 -4.085938 7.789062 -4.585938 7.78125 -5.109375 Z M 6.015625 -13.15625 C 4.910156 -13.132812 4 -13.445312 3.28125 -14.09375 C 2.570312 -14.738281 2.164062 -15.578125 2.0625 -16.609375 L 3.859375 -16.65625 C 3.984375 -16.09375 4.238281 -15.648438 4.625 -15.328125 C 5.019531 -15.015625 5.476562 -14.867188 6 -14.890625 C 6.519531 -14.898438 6.96875 -15.066406 7.34375 -15.390625 C 7.71875 -15.722656 7.945312 -16.179688 8.03125 -16.765625 L 9.84375 -16.8125 C 9.726562 -15.726562 9.34375 -14.851562 8.6875 -14.1875 C 8.03125 -13.53125 7.140625 -13.1875 6.015625 -13.15625 Z M 6.015625 -13.15625 "/></g></g></g></svg>